G04 (created by PCBNEW (2013-07-07 BZR 4022)-stable) date 7/6/2014 5:52:28 PM*
%MOIN*%
G04 Gerber Fmt 3.4, Leading zero omitted, Abs format*
%FSLAX34Y34*%
G01*
G70*
G90*
G04 APERTURE LIST*
%ADD10C,0.00590551*%
%ADD11C,0.069*%
%ADD12O,0.069X0.1035*%
%ADD13R,0.069X0.1035*%
%ADD14O,0.059X0.0885*%
%ADD15R,0.1035X0.069*%
%ADD16O,0.1035X0.069*%
%ADD17C,0.059*%
%ADD18O,0.0885X0.059*%
%ADD19R,0.137795X0.137795*%
%ADD20C,0.137795*%
%ADD21C,0.11811*%
%ADD22R,0.059X0.059*%
%ADD23O,0.059X0.059*%
%ADD24C,0.059*%
%ADD25R,0.16X0.16*%
%ADD26C,0.16*%
%ADD27R,0.059X0.0885*%
%ADD28C,0.36*%
%ADD29O,0.118X0.059*%
%ADD30C,0.069*%
%ADD31R,0.05X0.02*%
%ADD32R,0.069X0.069*%
%ADD33O,0.069X0.069*%
%ADD34C,0.035*%
%ADD35C,0.01*%
%ADD36C,0.02*%
%ADD37C,0.04*%
%ADD38C,0.24*%
G04 APERTURE END LIST*
G54D10*
G54D11*
X79763Y-50986D02*
X80007Y-50742D01*
G54D10*
G36*
X79056Y-49353D02*
X78568Y-48865D01*
X79300Y-48133D01*
X79788Y-48621D01*
X79056Y-49353D01*
X79056Y-49353D01*
G37*
G54D11*
X81884Y-51693D02*
X82128Y-51449D01*
G54D12*
X56500Y-68077D03*
G54D13*
X58500Y-69077D03*
G54D12*
X54500Y-69077D03*
G54D14*
X65250Y-56452D03*
X64750Y-57247D03*
X64250Y-56452D03*
X65250Y-58352D03*
X64750Y-59147D03*
X64250Y-58352D03*
G54D15*
X67427Y-46500D03*
G54D16*
X67427Y-47500D03*
X67427Y-48500D03*
G54D15*
X70572Y-48500D03*
G54D16*
X70572Y-47500D03*
X70572Y-46500D03*
G54D17*
X82250Y-41500D02*
X82041Y-41708D01*
X79630Y-44119D02*
X79421Y-44328D01*
G54D18*
X62647Y-71500D03*
X66352Y-71500D03*
X62647Y-70500D03*
X66352Y-70500D03*
X62647Y-65500D03*
X66352Y-65500D03*
X62647Y-66500D03*
X66352Y-66500D03*
X62647Y-69500D03*
X66352Y-69500D03*
X62647Y-68500D03*
X66352Y-68500D03*
X62647Y-67500D03*
X66352Y-67500D03*
G54D14*
X75000Y-43852D03*
X75000Y-40147D03*
X51000Y-61147D03*
X51000Y-64852D03*
X81250Y-56602D03*
X81250Y-52897D03*
G54D18*
X66352Y-73500D03*
X62647Y-73500D03*
G54D14*
X50000Y-56397D03*
X50000Y-60102D03*
X51000Y-56397D03*
X51000Y-60102D03*
X52000Y-56397D03*
X52000Y-60102D03*
X53000Y-56397D03*
X53000Y-60102D03*
X50000Y-61147D03*
X50000Y-64852D03*
G54D18*
X70397Y-63750D03*
X74102Y-63750D03*
X74102Y-61750D03*
X70397Y-61750D03*
X66397Y-57750D03*
X70102Y-57750D03*
X66397Y-58750D03*
X70102Y-58750D03*
X62147Y-45500D03*
X65852Y-45500D03*
X70397Y-62750D03*
X74102Y-62750D03*
G54D14*
X60000Y-50852D03*
X60000Y-47147D03*
X61000Y-50852D03*
X61000Y-47147D03*
G54D18*
X62147Y-46500D03*
X65852Y-46500D03*
X62647Y-62500D03*
X66352Y-62500D03*
X62647Y-63500D03*
X66352Y-63500D03*
G54D14*
X82250Y-56602D03*
X82250Y-52897D03*
X87750Y-50147D03*
X87750Y-53852D03*
G54D18*
X87102Y-56000D03*
X83397Y-56000D03*
X62647Y-64500D03*
X66352Y-64500D03*
X70397Y-64750D03*
X74102Y-64750D03*
G54D19*
X51000Y-47370D03*
G54D20*
X51000Y-45500D03*
X51000Y-43629D03*
G54D19*
X72750Y-70120D03*
G54D20*
X72750Y-68250D03*
X72750Y-66379D03*
G54D18*
X87749Y-69362D03*
G54D21*
X76972Y-74086D03*
G54D18*
X87749Y-70543D03*
G54D21*
X86027Y-74086D03*
G54D22*
X71250Y-59750D03*
G54D23*
X72250Y-59750D03*
X73250Y-59750D03*
X74250Y-59750D03*
X74250Y-56750D03*
X73250Y-56750D03*
X71250Y-56750D03*
X72250Y-56750D03*
G54D24*
X87750Y-71750D03*
X87750Y-73750D03*
X83500Y-64500D03*
X85500Y-64500D03*
X65500Y-60200D03*
X63500Y-60200D03*
X70207Y-56757D03*
X68792Y-55342D03*
G54D25*
X60500Y-44500D03*
G54D26*
X60500Y-42150D03*
X58650Y-43300D03*
G54D25*
X55250Y-44500D03*
G54D26*
X55250Y-42150D03*
X53400Y-43300D03*
G54D14*
X82500Y-74647D03*
X83500Y-74647D03*
G54D27*
X81500Y-74647D03*
G54D14*
X85250Y-51852D03*
X84250Y-51852D03*
G54D27*
X86250Y-51852D03*
G54D28*
X65000Y-76250D03*
X72500Y-76250D03*
G54D26*
X69000Y-42500D03*
X69000Y-52500D03*
G54D12*
X57500Y-58577D03*
X57500Y-55922D03*
G54D29*
X50500Y-66250D03*
X50500Y-68250D03*
X60500Y-52500D03*
X60500Y-54500D03*
X76750Y-40000D03*
X76750Y-42000D03*
X75500Y-46500D03*
X75500Y-48500D03*
G54D30*
X50250Y-49000D03*
X50250Y-55000D03*
X70750Y-45000D03*
X76750Y-45000D03*
X70750Y-50000D03*
X76750Y-50000D03*
X62750Y-51250D03*
X62750Y-57250D03*
G54D18*
X68602Y-71500D03*
X69397Y-72000D03*
X68602Y-72500D03*
X68602Y-68750D03*
X69397Y-69250D03*
X68602Y-69750D03*
G54D14*
X68250Y-77602D03*
X68250Y-73897D03*
X69250Y-77602D03*
X69250Y-73897D03*
X52000Y-61147D03*
X52000Y-64852D03*
X53000Y-61147D03*
X53000Y-64852D03*
X84750Y-54647D03*
X85250Y-53852D03*
X85750Y-54647D03*
G54D31*
X63900Y-60975D03*
X63900Y-61725D03*
X65100Y-60975D03*
X63900Y-61350D03*
X65100Y-61725D03*
G54D24*
X55787Y-51840D03*
X54212Y-50659D03*
G54D30*
X56476Y-51250D03*
X53523Y-51250D03*
G54D24*
X55000Y-51938D03*
X55000Y-50561D03*
X78250Y-46992D03*
X77561Y-46500D03*
X78938Y-46500D03*
X78250Y-46007D03*
X79500Y-41492D03*
X78811Y-41000D03*
X80188Y-41000D03*
X79500Y-40507D03*
G54D27*
X78250Y-51147D03*
G54D14*
X78250Y-49852D03*
G54D32*
X78750Y-76750D03*
G54D33*
X78750Y-75750D03*
G54D32*
X76250Y-76750D03*
G54D33*
X76250Y-75750D03*
G54D24*
X56462Y-62659D03*
X58037Y-63840D03*
G54D30*
X55773Y-63250D03*
X58726Y-63250D03*
G54D24*
X57250Y-62561D03*
X57250Y-63938D03*
G54D18*
X66352Y-72500D03*
X62647Y-72500D03*
X76147Y-52500D03*
X79852Y-52500D03*
G54D24*
X75500Y-56750D03*
X75500Y-54750D03*
X72250Y-60750D03*
X70250Y-60750D03*
X87250Y-57000D03*
X85250Y-57000D03*
G54D13*
X80500Y-64672D03*
G54D12*
X81500Y-64672D03*
X82500Y-64672D03*
G54D34*
X68850Y-60900D03*
X68750Y-63000D03*
X65750Y-60750D03*
X68500Y-60200D03*
X68500Y-62500D03*
X67450Y-58300D03*
X68050Y-62700D03*
X68150Y-60650D03*
X67450Y-58750D03*
X71350Y-63000D03*
X78750Y-64500D03*
X77750Y-64500D03*
X74250Y-60500D03*
X73000Y-60500D03*
X80000Y-56750D03*
G54D35*
X68750Y-61000D02*
X66000Y-61000D01*
X68850Y-60900D02*
X68750Y-61000D01*
X68750Y-63000D02*
X69250Y-63500D01*
G54D36*
X71870Y-65500D02*
X72750Y-66379D01*
X70000Y-65500D02*
X71870Y-65500D01*
G54D35*
X66000Y-61000D02*
X65750Y-60750D01*
X69250Y-63500D02*
X69250Y-64250D01*
G54D36*
X69500Y-65000D02*
X70000Y-65500D01*
X69500Y-64500D02*
X69500Y-65000D01*
X69250Y-64250D02*
X69500Y-64500D01*
X64250Y-56600D02*
X64250Y-58500D01*
X64250Y-56600D02*
X64250Y-55500D01*
X68500Y-46500D02*
X69000Y-47000D01*
X69000Y-47000D02*
X69000Y-49500D01*
X69000Y-49500D02*
X69000Y-50750D01*
X69000Y-50750D02*
X68250Y-51500D01*
X68250Y-51500D02*
X65000Y-54750D01*
X65000Y-54750D02*
X64250Y-55500D01*
X68500Y-46500D02*
X67600Y-46500D01*
X66000Y-46500D02*
X67500Y-46500D01*
X66000Y-45500D02*
X66000Y-46500D01*
X63900Y-61350D02*
X63350Y-61350D01*
X63250Y-60450D02*
X63500Y-60200D01*
X63250Y-61250D02*
X63250Y-60450D01*
X63350Y-61350D02*
X63250Y-61250D01*
G54D35*
X67000Y-62250D02*
X67000Y-61500D01*
X69750Y-61250D02*
X70000Y-61250D01*
X70000Y-61250D02*
X71750Y-61250D01*
X66500Y-72500D02*
X67000Y-72000D01*
X71750Y-61250D02*
X72250Y-60750D01*
X67000Y-65250D02*
X67000Y-64250D01*
X67000Y-69750D02*
X67000Y-65250D01*
X67000Y-72000D02*
X67000Y-69750D01*
X67000Y-64250D02*
X67000Y-62250D01*
X69500Y-61500D02*
X69750Y-61250D01*
X67000Y-61500D02*
X69500Y-61500D01*
X72250Y-59750D02*
X72250Y-60750D01*
X73250Y-61750D02*
X73500Y-61500D01*
X73500Y-61500D02*
X73500Y-60500D01*
X73500Y-60500D02*
X73500Y-60000D01*
X73500Y-60000D02*
X73250Y-59750D01*
X68750Y-61250D02*
X69250Y-61250D01*
X71500Y-60500D02*
X71750Y-60250D01*
X71750Y-60250D02*
X71750Y-59750D01*
X71750Y-59750D02*
X71750Y-59500D01*
X71750Y-59500D02*
X72000Y-59250D01*
X72000Y-59250D02*
X72500Y-59250D01*
X72500Y-59250D02*
X72750Y-59250D01*
X73250Y-59750D02*
X72750Y-59250D01*
X65600Y-61350D02*
X65700Y-61250D01*
X64225Y-60975D02*
X64600Y-61350D01*
X64600Y-61350D02*
X65600Y-61350D01*
X64225Y-60975D02*
X63900Y-60975D01*
X68750Y-61250D02*
X65750Y-61250D01*
X69750Y-60250D02*
X70500Y-60250D01*
X70500Y-60250D02*
X70750Y-60500D01*
X65700Y-61250D02*
X65750Y-61250D01*
X70750Y-60500D02*
X71500Y-60500D01*
X69500Y-60500D02*
X69750Y-60250D01*
X69500Y-61000D02*
X69500Y-60500D01*
X69250Y-61250D02*
X69500Y-61000D01*
X71750Y-62500D02*
X71250Y-62500D01*
X71750Y-62500D02*
X72250Y-62000D01*
X72250Y-62000D02*
X73000Y-62000D01*
X73000Y-62000D02*
X73250Y-61750D01*
X69750Y-63250D02*
X69500Y-63500D01*
X69500Y-63500D02*
X69500Y-64000D01*
X70250Y-64750D02*
X69500Y-64000D01*
X70750Y-63250D02*
X69750Y-63250D01*
X71000Y-63000D02*
X70750Y-63250D01*
X71000Y-62750D02*
X71000Y-63000D01*
X71250Y-62500D02*
X71000Y-62750D01*
G54D36*
X85250Y-54000D02*
X85250Y-52000D01*
G54D37*
X70400Y-46500D02*
X70250Y-46500D01*
X70500Y-50000D02*
X70750Y-50000D01*
X69500Y-49000D02*
X70500Y-50000D01*
X69500Y-47250D02*
X69500Y-49000D01*
X70250Y-46500D02*
X69500Y-47250D01*
X76750Y-45000D02*
X76000Y-45000D01*
X76000Y-45000D02*
X75000Y-44000D01*
G54D36*
X70250Y-57750D02*
X71250Y-57750D01*
X71250Y-57750D02*
X72250Y-56750D01*
X86250Y-52000D02*
X86250Y-51500D01*
X86250Y-51500D02*
X87750Y-50000D01*
X81250Y-52750D02*
X81250Y-52328D01*
X81250Y-52328D02*
X82128Y-51449D01*
X82250Y-52750D02*
X83500Y-52750D01*
X83500Y-52750D02*
X84250Y-52000D01*
X70250Y-58750D02*
X71250Y-59750D01*
G54D35*
X67450Y-58300D02*
X67950Y-58300D01*
X67950Y-58300D02*
X68500Y-58850D01*
X68500Y-58850D02*
X68500Y-60200D01*
X68500Y-62750D02*
X68400Y-62850D01*
X68400Y-62850D02*
X68400Y-63100D01*
X68400Y-63100D02*
X68400Y-63150D01*
X68400Y-63150D02*
X68500Y-63250D01*
X68500Y-66500D02*
X68500Y-63250D01*
X68500Y-62750D02*
X68500Y-62500D01*
X70250Y-68250D02*
X70250Y-69750D01*
X70250Y-69750D02*
X69500Y-70500D01*
X69500Y-70500D02*
X69500Y-71750D01*
X69250Y-72000D02*
X69500Y-71750D01*
X68500Y-66500D02*
X70250Y-68250D01*
X64750Y-57100D02*
X65100Y-57450D01*
X65950Y-57450D02*
X66250Y-57750D01*
X65100Y-57450D02*
X65950Y-57450D01*
X68250Y-73750D02*
X68250Y-74500D01*
X69000Y-72750D02*
X68750Y-72500D01*
X69500Y-72750D02*
X69000Y-72750D01*
X70000Y-73250D02*
X69500Y-72750D01*
X70000Y-74250D02*
X70000Y-73250D01*
X69500Y-74750D02*
X70000Y-74250D01*
X68500Y-74750D02*
X69500Y-74750D01*
X68250Y-74500D02*
X68500Y-74750D01*
G54D36*
X68250Y-77750D02*
X68250Y-76500D01*
X78000Y-75000D02*
X78750Y-75750D01*
X76500Y-75000D02*
X78000Y-75000D01*
X75000Y-73500D02*
X76500Y-75000D01*
X71250Y-73500D02*
X75000Y-73500D01*
X68250Y-76500D02*
X71250Y-73500D01*
G54D35*
X69250Y-73750D02*
X69250Y-73500D01*
X67750Y-70750D02*
X68750Y-69750D01*
X67750Y-72750D02*
X67750Y-70750D01*
X68250Y-73250D02*
X67750Y-72750D01*
X69000Y-73250D02*
X68250Y-73250D01*
X69250Y-73500D02*
X69000Y-73250D01*
G54D36*
X69250Y-76250D02*
X71500Y-74000D01*
X69250Y-77750D02*
X69250Y-76250D01*
X74500Y-74000D02*
X76250Y-75750D01*
X71500Y-74000D02*
X74500Y-74000D01*
G54D35*
X68050Y-62700D02*
X68050Y-66800D01*
X68050Y-66800D02*
X69250Y-68000D01*
X67450Y-58750D02*
X67450Y-59950D01*
X67450Y-59950D02*
X67750Y-60250D01*
X69250Y-69250D02*
X69250Y-68000D01*
X68150Y-60650D02*
X67750Y-60250D01*
X64750Y-59000D02*
X65600Y-59000D01*
X66000Y-59000D02*
X66250Y-58750D01*
X65600Y-59000D02*
X66000Y-59000D01*
G54D36*
X80007Y-50742D02*
X80007Y-52492D01*
X80007Y-52492D02*
X80000Y-52500D01*
G54D35*
X62500Y-72500D02*
X59500Y-72500D01*
X56500Y-69500D02*
X56500Y-68250D01*
X59500Y-72500D02*
X56500Y-69500D01*
G54D36*
X61000Y-47000D02*
X61500Y-47000D01*
X61500Y-47000D02*
X62000Y-46500D01*
X60000Y-47000D02*
X61000Y-47000D01*
X62000Y-45500D02*
X62000Y-46500D01*
G54D37*
X70400Y-48500D02*
X72000Y-48500D01*
X74000Y-46500D02*
X75500Y-46500D01*
X72000Y-48500D02*
X74000Y-46500D01*
X75500Y-46500D02*
X77561Y-46500D01*
X77561Y-46500D02*
X78053Y-46007D01*
X78053Y-46007D02*
X78250Y-46007D01*
X79421Y-44328D02*
X78250Y-45500D01*
X78250Y-45500D02*
X78250Y-46007D01*
X79500Y-40507D02*
X79757Y-40250D01*
X81000Y-40250D02*
X82250Y-41500D01*
X79757Y-40250D02*
X81000Y-40250D01*
X79500Y-40507D02*
X79007Y-41000D01*
X79007Y-41000D02*
X78811Y-41000D01*
X76750Y-40000D02*
X77750Y-41000D01*
X77750Y-41000D02*
X78811Y-41000D01*
X75000Y-40000D02*
X76750Y-40000D01*
G54D35*
X70250Y-63750D02*
X72000Y-63750D01*
X81500Y-71000D02*
X81500Y-74500D01*
X76000Y-65500D02*
X81500Y-71000D01*
X73750Y-65500D02*
X76000Y-65500D01*
X72000Y-63750D02*
X73750Y-65500D01*
X74250Y-64750D02*
X75750Y-64750D01*
X83500Y-72500D02*
X83500Y-74500D01*
X75750Y-64750D02*
X83500Y-72500D01*
X82500Y-74500D02*
X82500Y-75250D01*
X79336Y-74086D02*
X76972Y-74086D01*
X81000Y-75750D02*
X79336Y-74086D01*
X82000Y-75750D02*
X81000Y-75750D01*
X82500Y-75250D02*
X82000Y-75750D01*
X62500Y-73500D02*
X58750Y-73500D01*
X58750Y-73500D02*
X54500Y-69250D01*
G54D36*
X63900Y-61725D02*
X63125Y-62500D01*
X63125Y-62500D02*
X62500Y-62500D01*
G54D35*
X67500Y-62750D02*
X67500Y-62000D01*
X67500Y-62750D02*
X67500Y-64750D01*
X67500Y-73750D02*
X67500Y-67750D01*
X67500Y-67750D02*
X67500Y-65500D01*
X65000Y-76250D02*
X67500Y-73750D01*
X67500Y-64750D02*
X67500Y-65500D01*
X69750Y-62750D02*
X70250Y-62750D01*
X69500Y-62500D02*
X69750Y-62750D01*
X69500Y-62250D02*
X69500Y-62500D01*
X69250Y-62000D02*
X69500Y-62250D01*
X67500Y-62000D02*
X69250Y-62000D01*
G54D36*
X72500Y-63000D02*
X72750Y-63000D01*
X72750Y-63000D02*
X73000Y-63250D01*
X73000Y-63250D02*
X73250Y-63250D01*
X71350Y-63000D02*
X72500Y-63000D01*
X80500Y-64500D02*
X78750Y-64500D01*
X76750Y-64500D02*
X77750Y-64500D01*
X75500Y-63250D02*
X76750Y-64500D01*
X73250Y-63250D02*
X75500Y-63250D01*
X65100Y-61725D02*
X65875Y-62500D01*
X65875Y-62500D02*
X66500Y-62500D01*
X66500Y-62500D02*
X65500Y-62500D01*
X65500Y-62500D02*
X64500Y-63500D01*
X66500Y-71500D02*
X64500Y-71500D01*
X66500Y-70500D02*
X64500Y-70500D01*
X66500Y-69500D02*
X64500Y-69500D01*
X66500Y-68500D02*
X64500Y-68500D01*
X66500Y-67500D02*
X64500Y-67500D01*
X66500Y-66500D02*
X64500Y-66500D01*
X66500Y-65500D02*
X64500Y-65500D01*
X66500Y-64500D02*
X64500Y-64500D01*
X66500Y-63500D02*
X64500Y-63500D01*
G54D38*
X64500Y-75750D02*
X64500Y-71500D01*
X64500Y-71500D02*
X64500Y-70500D01*
X64500Y-70500D02*
X64500Y-69500D01*
X64500Y-69500D02*
X64500Y-68500D01*
X64500Y-68500D02*
X64500Y-67500D01*
X64500Y-67500D02*
X64500Y-66500D01*
X64500Y-66500D02*
X64500Y-65500D01*
X64500Y-65500D02*
X64500Y-64500D01*
X64500Y-64500D02*
X64500Y-63500D01*
X64500Y-75750D02*
X65000Y-76250D01*
G54D36*
X65000Y-62500D02*
X64500Y-63000D01*
G54D35*
X77750Y-57500D02*
X74750Y-60500D01*
X74750Y-60500D02*
X74250Y-60500D01*
X73000Y-60500D02*
X73000Y-61000D01*
X73000Y-61000D02*
X72750Y-61250D01*
X80000Y-56750D02*
X78500Y-56750D01*
X78500Y-56750D02*
X77750Y-57500D01*
G54D36*
X84750Y-54500D02*
X83250Y-56000D01*
G54D35*
X67250Y-62500D02*
X67250Y-61750D01*
X72500Y-61500D02*
X72750Y-61250D01*
X71500Y-62250D02*
X72250Y-61500D01*
X72250Y-61500D02*
X72500Y-61500D01*
X67250Y-72750D02*
X66500Y-73500D01*
X67250Y-72750D02*
X67250Y-65250D01*
X67250Y-65250D02*
X67250Y-64500D01*
X67250Y-64500D02*
X67250Y-62500D01*
X70500Y-62250D02*
X71500Y-62250D01*
X69750Y-62250D02*
X70500Y-62250D01*
X69750Y-62000D02*
X69750Y-62250D01*
X69500Y-61750D02*
X69750Y-62000D01*
X67250Y-61750D02*
X69500Y-61750D01*
G54D36*
X81250Y-56750D02*
X82250Y-56750D01*
X83250Y-56000D02*
X83000Y-56000D01*
X83000Y-56000D02*
X82250Y-56750D01*
G54D37*
X70750Y-45000D02*
X66750Y-45000D01*
X64500Y-45500D02*
X64500Y-47500D01*
X65250Y-44750D02*
X64500Y-45500D01*
X66500Y-44750D02*
X65250Y-44750D01*
X66750Y-45000D02*
X66500Y-44750D01*
X81000Y-61000D02*
X81000Y-57750D01*
X80500Y-54750D02*
X80500Y-57250D01*
X80500Y-57250D02*
X81000Y-57750D01*
X81000Y-57750D02*
X86500Y-57750D01*
X86500Y-57750D02*
X87250Y-57000D01*
X78250Y-52500D02*
X80500Y-54750D01*
X78250Y-51000D02*
X78250Y-52500D01*
X81000Y-61000D02*
X81000Y-62250D01*
X81000Y-62250D02*
X79750Y-63500D01*
X79750Y-63500D02*
X78250Y-63500D01*
G54D36*
X69750Y-56750D02*
X69000Y-56750D01*
X70250Y-56750D02*
X69750Y-56750D01*
X66300Y-60200D02*
X65500Y-60200D01*
X67050Y-59450D02*
X66300Y-60200D01*
X67050Y-57250D02*
X67050Y-59450D01*
X68500Y-57250D02*
X67050Y-57250D01*
X69000Y-56750D02*
X68500Y-57250D01*
X65500Y-60200D02*
X65100Y-60600D01*
X65100Y-60600D02*
X65100Y-60975D01*
X76750Y-50000D02*
X76750Y-50500D01*
X71250Y-56500D02*
X71250Y-56750D01*
X71750Y-56000D02*
X71250Y-56500D01*
G54D37*
X73000Y-56000D02*
X71750Y-56000D01*
X74500Y-54500D02*
X73000Y-56000D01*
X74500Y-53250D02*
X74500Y-54500D01*
X74500Y-52750D02*
X74500Y-53250D01*
X76750Y-50500D02*
X74500Y-52750D01*
G54D36*
X70250Y-56750D02*
X71250Y-56750D01*
X87250Y-57000D02*
X87250Y-56000D01*
X81500Y-64500D02*
X82500Y-63500D01*
X83500Y-64500D02*
X82500Y-63500D01*
X82500Y-63500D02*
X81500Y-63500D01*
X81500Y-63500D02*
X78250Y-63500D01*
X87750Y-71750D02*
X87750Y-70690D01*
X87750Y-70690D02*
X87602Y-70543D01*
X84750Y-72750D02*
X86750Y-72750D01*
X86750Y-72750D02*
X87750Y-71750D01*
X78750Y-76750D02*
X83500Y-76750D01*
G54D37*
X78250Y-66250D02*
X84750Y-72750D01*
X78250Y-66250D02*
X78250Y-63500D01*
G54D36*
X84750Y-75500D02*
X84750Y-72750D01*
X83500Y-76750D02*
X84750Y-75500D01*
G54D37*
X76750Y-50000D02*
X77750Y-51000D01*
X77750Y-51000D02*
X78250Y-51000D01*
G54D36*
X76250Y-76750D02*
X78750Y-76750D01*
G54D35*
X75000Y-56750D02*
X75000Y-56500D01*
X75500Y-56750D02*
X75000Y-56750D01*
X74000Y-56000D02*
X73250Y-56750D01*
X74500Y-56000D02*
X74000Y-56000D01*
X75000Y-56500D02*
X74500Y-56000D01*
X76000Y-52500D02*
X76000Y-54000D01*
X76250Y-56000D02*
X75500Y-56750D01*
X76250Y-54250D02*
X76250Y-56000D01*
X76000Y-54000D02*
X76250Y-54250D01*
X74250Y-58750D02*
X73750Y-59250D01*
X74250Y-56750D02*
X74250Y-58750D01*
X73750Y-61250D02*
X74250Y-61750D01*
X73750Y-60250D02*
X73750Y-61250D01*
X73750Y-59250D02*
X73750Y-60250D01*
X74250Y-61750D02*
X74250Y-62750D01*
G54D10*
G36*
X52700Y-50200D02*
X51939Y-50200D01*
X51939Y-48009D01*
X51938Y-47482D01*
X51876Y-47420D01*
X51050Y-47420D01*
X51050Y-48246D01*
X51112Y-48309D01*
X51738Y-48309D01*
X51830Y-48271D01*
X51900Y-48200D01*
X51938Y-48109D01*
X51939Y-48009D01*
X51939Y-50200D01*
X50950Y-50200D01*
X50950Y-48246D01*
X50950Y-47420D01*
X50123Y-47420D01*
X50061Y-47482D01*
X50060Y-48009D01*
X50061Y-48109D01*
X50099Y-48200D01*
X50169Y-48271D01*
X50261Y-48309D01*
X50887Y-48309D01*
X50950Y-48246D01*
X50950Y-50200D01*
X50849Y-50200D01*
X50849Y-49092D01*
X50839Y-48856D01*
X50768Y-48685D01*
X50668Y-48652D01*
X50597Y-48722D01*
X50597Y-48581D01*
X50564Y-48481D01*
X50342Y-48400D01*
X50106Y-48410D01*
X49935Y-48481D01*
X49902Y-48581D01*
X50250Y-48929D01*
X50597Y-48581D01*
X50597Y-48722D01*
X50320Y-49000D01*
X50668Y-49347D01*
X50768Y-49314D01*
X50849Y-49092D01*
X50849Y-50200D01*
X50597Y-50200D01*
X50597Y-49418D01*
X50250Y-49070D01*
X50179Y-49141D01*
X50179Y-49000D01*
X49831Y-48652D01*
X49731Y-48685D01*
X49650Y-48907D01*
X49660Y-49143D01*
X49731Y-49314D01*
X49831Y-49347D01*
X50179Y-49000D01*
X50179Y-49141D01*
X49902Y-49418D01*
X49935Y-49518D01*
X50157Y-49599D01*
X50393Y-49589D01*
X50564Y-49518D01*
X50597Y-49418D01*
X50597Y-50200D01*
X49519Y-50200D01*
X49519Y-46550D01*
X50094Y-46550D01*
X50061Y-46631D01*
X50060Y-46730D01*
X50061Y-47257D01*
X50123Y-47320D01*
X50950Y-47320D01*
X50950Y-47312D01*
X51050Y-47312D01*
X51050Y-47320D01*
X51876Y-47320D01*
X51938Y-47257D01*
X51939Y-46730D01*
X51938Y-46631D01*
X51905Y-46550D01*
X52700Y-46550D01*
X52700Y-50200D01*
X52700Y-50200D01*
G37*
G54D35*
X52700Y-50200D02*
X51939Y-50200D01*
X51939Y-48009D01*
X51938Y-47482D01*
X51876Y-47420D01*
X51050Y-47420D01*
X51050Y-48246D01*
X51112Y-48309D01*
X51738Y-48309D01*
X51830Y-48271D01*
X51900Y-48200D01*
X51938Y-48109D01*
X51939Y-48009D01*
X51939Y-50200D01*
X50950Y-50200D01*
X50950Y-48246D01*
X50950Y-47420D01*
X50123Y-47420D01*
X50061Y-47482D01*
X50060Y-48009D01*
X50061Y-48109D01*
X50099Y-48200D01*
X50169Y-48271D01*
X50261Y-48309D01*
X50887Y-48309D01*
X50950Y-48246D01*
X50950Y-50200D01*
X50849Y-50200D01*
X50849Y-49092D01*
X50839Y-48856D01*
X50768Y-48685D01*
X50668Y-48652D01*
X50597Y-48722D01*
X50597Y-48581D01*
X50564Y-48481D01*
X50342Y-48400D01*
X50106Y-48410D01*
X49935Y-48481D01*
X49902Y-48581D01*
X50250Y-48929D01*
X50597Y-48581D01*
X50597Y-48722D01*
X50320Y-49000D01*
X50668Y-49347D01*
X50768Y-49314D01*
X50849Y-49092D01*
X50849Y-50200D01*
X50597Y-50200D01*
X50597Y-49418D01*
X50250Y-49070D01*
X50179Y-49141D01*
X50179Y-49000D01*
X49831Y-48652D01*
X49731Y-48685D01*
X49650Y-48907D01*
X49660Y-49143D01*
X49731Y-49314D01*
X49831Y-49347D01*
X50179Y-49000D01*
X50179Y-49141D01*
X49902Y-49418D01*
X49935Y-49518D01*
X50157Y-49599D01*
X50393Y-49589D01*
X50564Y-49518D01*
X50597Y-49418D01*
X50597Y-50200D01*
X49519Y-50200D01*
X49519Y-46550D01*
X50094Y-46550D01*
X50061Y-46631D01*
X50060Y-46730D01*
X50061Y-47257D01*
X50123Y-47320D01*
X50950Y-47320D01*
X50950Y-47312D01*
X51050Y-47312D01*
X51050Y-47320D01*
X51876Y-47320D01*
X51938Y-47257D01*
X51939Y-46730D01*
X51938Y-46631D01*
X51905Y-46550D01*
X52700Y-46550D01*
X52700Y-50200D01*
G54D10*
G36*
X61450Y-46555D02*
X61392Y-46612D01*
X61385Y-46601D01*
X61208Y-46482D01*
X61000Y-46441D01*
X60791Y-46482D01*
X60614Y-46601D01*
X60581Y-46650D01*
X60450Y-46650D01*
X60450Y-45487D01*
X60450Y-44550D01*
X60450Y-44450D01*
X60450Y-43512D01*
X60387Y-43450D01*
X59749Y-43449D01*
X59699Y-43450D01*
X59700Y-43092D01*
X59540Y-42706D01*
X59245Y-42410D01*
X58859Y-42250D01*
X58442Y-42249D01*
X58056Y-42409D01*
X57760Y-42704D01*
X57600Y-43090D01*
X57599Y-43507D01*
X57759Y-43894D01*
X58054Y-44189D01*
X58440Y-44349D01*
X58857Y-44350D01*
X59244Y-44190D01*
X59449Y-43985D01*
X59450Y-44387D01*
X59512Y-44450D01*
X60450Y-44450D01*
X60450Y-44550D01*
X59512Y-44550D01*
X59450Y-44612D01*
X59449Y-45349D01*
X59487Y-45441D01*
X59558Y-45511D01*
X59650Y-45549D01*
X59749Y-45550D01*
X60387Y-45550D01*
X60450Y-45487D01*
X60450Y-46650D01*
X60418Y-46650D01*
X60385Y-46601D01*
X60208Y-46482D01*
X60000Y-46441D01*
X59791Y-46482D01*
X59614Y-46601D01*
X59496Y-46777D01*
X59455Y-46986D01*
X59455Y-47308D01*
X59496Y-47517D01*
X59614Y-47693D01*
X59623Y-47700D01*
X56300Y-47700D01*
X56300Y-45349D01*
X56300Y-43650D01*
X56262Y-43558D01*
X56191Y-43488D01*
X56099Y-43450D01*
X56000Y-43449D01*
X55362Y-43450D01*
X55300Y-43512D01*
X55300Y-44450D01*
X56237Y-44450D01*
X56300Y-44387D01*
X56300Y-43650D01*
X56300Y-45349D01*
X56300Y-44612D01*
X56237Y-44550D01*
X55300Y-44550D01*
X55300Y-45487D01*
X55362Y-45550D01*
X56000Y-45550D01*
X56099Y-45549D01*
X56191Y-45511D01*
X56262Y-45441D01*
X56300Y-45349D01*
X56300Y-47700D01*
X55200Y-47700D01*
X55200Y-45487D01*
X55200Y-44550D01*
X55200Y-44450D01*
X55200Y-43512D01*
X55137Y-43450D01*
X54499Y-43449D01*
X54449Y-43450D01*
X54450Y-43092D01*
X54290Y-42706D01*
X53995Y-42410D01*
X53609Y-42250D01*
X53192Y-42249D01*
X52806Y-42409D01*
X52510Y-42704D01*
X52350Y-43090D01*
X52349Y-43507D01*
X52509Y-43894D01*
X52804Y-44189D01*
X53190Y-44349D01*
X53607Y-44350D01*
X53994Y-44190D01*
X54199Y-43985D01*
X54200Y-44387D01*
X54262Y-44450D01*
X55200Y-44450D01*
X55200Y-44550D01*
X54262Y-44550D01*
X54200Y-44612D01*
X54199Y-45349D01*
X54237Y-45441D01*
X54308Y-45511D01*
X54400Y-45549D01*
X54499Y-45550D01*
X55137Y-45550D01*
X55200Y-45487D01*
X55200Y-47700D01*
X53050Y-47700D01*
X53050Y-46200D01*
X51941Y-46200D01*
X51941Y-45674D01*
X51939Y-45506D01*
X51939Y-43443D01*
X51796Y-43098D01*
X51532Y-42834D01*
X51187Y-42691D01*
X50814Y-42690D01*
X50468Y-42833D01*
X50204Y-43097D01*
X50061Y-43442D01*
X50060Y-43815D01*
X50203Y-44161D01*
X50467Y-44425D01*
X50800Y-44563D01*
X50478Y-44697D01*
X50403Y-44832D01*
X51000Y-45429D01*
X51596Y-44832D01*
X51521Y-44697D01*
X51193Y-44566D01*
X51531Y-44426D01*
X51795Y-44162D01*
X51938Y-43817D01*
X51939Y-43443D01*
X51939Y-45506D01*
X51936Y-45301D01*
X51802Y-44978D01*
X51667Y-44903D01*
X51070Y-45500D01*
X51667Y-46096D01*
X51802Y-46021D01*
X51941Y-45674D01*
X51941Y-46200D01*
X51578Y-46200D01*
X51596Y-46167D01*
X51000Y-45570D01*
X50929Y-45641D01*
X50929Y-45500D01*
X50332Y-44903D01*
X50197Y-44978D01*
X50058Y-45325D01*
X50063Y-45698D01*
X50197Y-46021D01*
X50332Y-46096D01*
X50929Y-45500D01*
X50929Y-45641D01*
X50403Y-46167D01*
X50421Y-46200D01*
X49519Y-46200D01*
X49519Y-41800D01*
X50632Y-41800D01*
X50824Y-41879D01*
X51174Y-41880D01*
X51368Y-41800D01*
X54258Y-41800D01*
X54200Y-41940D01*
X54199Y-42357D01*
X54359Y-42744D01*
X54654Y-43039D01*
X55040Y-43199D01*
X55457Y-43200D01*
X55844Y-43040D01*
X56139Y-42745D01*
X56299Y-42359D01*
X56300Y-41942D01*
X56241Y-41800D01*
X59508Y-41800D01*
X59450Y-41940D01*
X59449Y-42357D01*
X59609Y-42744D01*
X59904Y-43039D01*
X60290Y-43199D01*
X60707Y-43200D01*
X61094Y-43040D01*
X61389Y-42745D01*
X61450Y-42600D01*
X61450Y-43496D01*
X61441Y-43488D01*
X61349Y-43450D01*
X61250Y-43449D01*
X60612Y-43450D01*
X60550Y-43512D01*
X60550Y-44450D01*
X60557Y-44450D01*
X60557Y-44550D01*
X60550Y-44550D01*
X60550Y-45487D01*
X60612Y-45550D01*
X61250Y-45550D01*
X61349Y-45549D01*
X61441Y-45511D01*
X61443Y-45510D01*
X61450Y-45543D01*
X61450Y-46456D01*
X61441Y-46500D01*
X61450Y-46543D01*
X61450Y-46555D01*
X61450Y-46555D01*
G37*
G54D35*
X61450Y-46555D02*
X61392Y-46612D01*
X61385Y-46601D01*
X61208Y-46482D01*
X61000Y-46441D01*
X60791Y-46482D01*
X60614Y-46601D01*
X60581Y-46650D01*
X60450Y-46650D01*
X60450Y-45487D01*
X60450Y-44550D01*
X60450Y-44450D01*
X60450Y-43512D01*
X60387Y-43450D01*
X59749Y-43449D01*
X59699Y-43450D01*
X59700Y-43092D01*
X59540Y-42706D01*
X59245Y-42410D01*
X58859Y-42250D01*
X58442Y-42249D01*
X58056Y-42409D01*
X57760Y-42704D01*
X57600Y-43090D01*
X57599Y-43507D01*
X57759Y-43894D01*
X58054Y-44189D01*
X58440Y-44349D01*
X58857Y-44350D01*
X59244Y-44190D01*
X59449Y-43985D01*
X59450Y-44387D01*
X59512Y-44450D01*
X60450Y-44450D01*
X60450Y-44550D01*
X59512Y-44550D01*
X59450Y-44612D01*
X59449Y-45349D01*
X59487Y-45441D01*
X59558Y-45511D01*
X59650Y-45549D01*
X59749Y-45550D01*
X60387Y-45550D01*
X60450Y-45487D01*
X60450Y-46650D01*
X60418Y-46650D01*
X60385Y-46601D01*
X60208Y-46482D01*
X60000Y-46441D01*
X59791Y-46482D01*
X59614Y-46601D01*
X59496Y-46777D01*
X59455Y-46986D01*
X59455Y-47308D01*
X59496Y-47517D01*
X59614Y-47693D01*
X59623Y-47700D01*
X56300Y-47700D01*
X56300Y-45349D01*
X56300Y-43650D01*
X56262Y-43558D01*
X56191Y-43488D01*
X56099Y-43450D01*
X56000Y-43449D01*
X55362Y-43450D01*
X55300Y-43512D01*
X55300Y-44450D01*
X56237Y-44450D01*
X56300Y-44387D01*
X56300Y-43650D01*
X56300Y-45349D01*
X56300Y-44612D01*
X56237Y-44550D01*
X55300Y-44550D01*
X55300Y-45487D01*
X55362Y-45550D01*
X56000Y-45550D01*
X56099Y-45549D01*
X56191Y-45511D01*
X56262Y-45441D01*
X56300Y-45349D01*
X56300Y-47700D01*
X55200Y-47700D01*
X55200Y-45487D01*
X55200Y-44550D01*
X55200Y-44450D01*
X55200Y-43512D01*
X55137Y-43450D01*
X54499Y-43449D01*
X54449Y-43450D01*
X54450Y-43092D01*
X54290Y-42706D01*
X53995Y-42410D01*
X53609Y-42250D01*
X53192Y-42249D01*
X52806Y-42409D01*
X52510Y-42704D01*
X52350Y-43090D01*
X52349Y-43507D01*
X52509Y-43894D01*
X52804Y-44189D01*
X53190Y-44349D01*
X53607Y-44350D01*
X53994Y-44190D01*
X54199Y-43985D01*
X54200Y-44387D01*
X54262Y-44450D01*
X55200Y-44450D01*
X55200Y-44550D01*
X54262Y-44550D01*
X54200Y-44612D01*
X54199Y-45349D01*
X54237Y-45441D01*
X54308Y-45511D01*
X54400Y-45549D01*
X54499Y-45550D01*
X55137Y-45550D01*
X55200Y-45487D01*
X55200Y-47700D01*
X53050Y-47700D01*
X53050Y-46200D01*
X51941Y-46200D01*
X51941Y-45674D01*
X51939Y-45506D01*
X51939Y-43443D01*
X51796Y-43098D01*
X51532Y-42834D01*
X51187Y-42691D01*
X50814Y-42690D01*
X50468Y-42833D01*
X50204Y-43097D01*
X50061Y-43442D01*
X50060Y-43815D01*
X50203Y-44161D01*
X50467Y-44425D01*
X50800Y-44563D01*
X50478Y-44697D01*
X50403Y-44832D01*
X51000Y-45429D01*
X51596Y-44832D01*
X51521Y-44697D01*
X51193Y-44566D01*
X51531Y-44426D01*
X51795Y-44162D01*
X51938Y-43817D01*
X51939Y-43443D01*
X51939Y-45506D01*
X51936Y-45301D01*
X51802Y-44978D01*
X51667Y-44903D01*
X51070Y-45500D01*
X51667Y-46096D01*
X51802Y-46021D01*
X51941Y-45674D01*
X51941Y-46200D01*
X51578Y-46200D01*
X51596Y-46167D01*
X51000Y-45570D01*
X50929Y-45641D01*
X50929Y-45500D01*
X50332Y-44903D01*
X50197Y-44978D01*
X50058Y-45325D01*
X50063Y-45698D01*
X50197Y-46021D01*
X50332Y-46096D01*
X50929Y-45500D01*
X50929Y-45641D01*
X50403Y-46167D01*
X50421Y-46200D01*
X49519Y-46200D01*
X49519Y-41800D01*
X50632Y-41800D01*
X50824Y-41879D01*
X51174Y-41880D01*
X51368Y-41800D01*
X54258Y-41800D01*
X54200Y-41940D01*
X54199Y-42357D01*
X54359Y-42744D01*
X54654Y-43039D01*
X55040Y-43199D01*
X55457Y-43200D01*
X55844Y-43040D01*
X56139Y-42745D01*
X56299Y-42359D01*
X56300Y-41942D01*
X56241Y-41800D01*
X59508Y-41800D01*
X59450Y-41940D01*
X59449Y-42357D01*
X59609Y-42744D01*
X59904Y-43039D01*
X60290Y-43199D01*
X60707Y-43200D01*
X61094Y-43040D01*
X61389Y-42745D01*
X61450Y-42600D01*
X61450Y-43496D01*
X61441Y-43488D01*
X61349Y-43450D01*
X61250Y-43449D01*
X60612Y-43450D01*
X60550Y-43512D01*
X60550Y-44450D01*
X60557Y-44450D01*
X60557Y-44550D01*
X60550Y-44550D01*
X60550Y-45487D01*
X60612Y-45550D01*
X61250Y-45550D01*
X61349Y-45549D01*
X61441Y-45511D01*
X61443Y-45510D01*
X61450Y-45543D01*
X61450Y-46456D01*
X61441Y-46500D01*
X61450Y-46543D01*
X61450Y-46555D01*
G54D10*
G36*
X54700Y-58450D02*
X53545Y-58450D01*
X53545Y-56595D01*
X53545Y-56447D01*
X53545Y-56347D01*
X53545Y-56200D01*
X53484Y-55995D01*
X53350Y-55829D01*
X53162Y-55727D01*
X53134Y-55721D01*
X53050Y-55770D01*
X53050Y-56347D01*
X53545Y-56347D01*
X53545Y-56447D01*
X53050Y-56447D01*
X53050Y-57024D01*
X53134Y-57073D01*
X53162Y-57067D01*
X53350Y-56965D01*
X53484Y-56799D01*
X53545Y-56595D01*
X53545Y-58450D01*
X52950Y-58450D01*
X52950Y-57024D01*
X52950Y-56447D01*
X52950Y-56347D01*
X52950Y-55770D01*
X52865Y-55721D01*
X52837Y-55727D01*
X52649Y-55829D01*
X52515Y-55995D01*
X52500Y-56048D01*
X52484Y-55995D01*
X52350Y-55829D01*
X52162Y-55727D01*
X52134Y-55721D01*
X52050Y-55770D01*
X52050Y-56347D01*
X52455Y-56347D01*
X52545Y-56347D01*
X52950Y-56347D01*
X52950Y-56447D01*
X52545Y-56447D01*
X52455Y-56447D01*
X52050Y-56447D01*
X52050Y-57024D01*
X52134Y-57073D01*
X52162Y-57067D01*
X52350Y-56965D01*
X52484Y-56799D01*
X52500Y-56746D01*
X52515Y-56799D01*
X52649Y-56965D01*
X52837Y-57067D01*
X52865Y-57073D01*
X52950Y-57024D01*
X52950Y-58450D01*
X51950Y-58450D01*
X51950Y-57024D01*
X51950Y-56447D01*
X51950Y-56347D01*
X51950Y-55770D01*
X51865Y-55721D01*
X51837Y-55727D01*
X51649Y-55829D01*
X51515Y-55995D01*
X51500Y-56048D01*
X51484Y-55995D01*
X51350Y-55829D01*
X51162Y-55727D01*
X51134Y-55721D01*
X51050Y-55770D01*
X51050Y-56347D01*
X51455Y-56347D01*
X51545Y-56347D01*
X51950Y-56347D01*
X51950Y-56447D01*
X51545Y-56447D01*
X51455Y-56447D01*
X51050Y-56447D01*
X51050Y-57024D01*
X51134Y-57073D01*
X51162Y-57067D01*
X51350Y-56965D01*
X51484Y-56799D01*
X51500Y-56746D01*
X51515Y-56799D01*
X51649Y-56965D01*
X51837Y-57067D01*
X51865Y-57073D01*
X51950Y-57024D01*
X51950Y-58450D01*
X50950Y-58450D01*
X50950Y-57024D01*
X50950Y-56447D01*
X50950Y-56347D01*
X50950Y-55770D01*
X50865Y-55721D01*
X50849Y-55724D01*
X50849Y-55092D01*
X50839Y-54856D01*
X50768Y-54685D01*
X50668Y-54652D01*
X50597Y-54722D01*
X50597Y-54581D01*
X50564Y-54481D01*
X50342Y-54400D01*
X50106Y-54410D01*
X49935Y-54481D01*
X49902Y-54581D01*
X50250Y-54929D01*
X50597Y-54581D01*
X50597Y-54722D01*
X50320Y-55000D01*
X50668Y-55347D01*
X50768Y-55314D01*
X50849Y-55092D01*
X50849Y-55724D01*
X50837Y-55727D01*
X50649Y-55829D01*
X50597Y-55893D01*
X50597Y-55418D01*
X50250Y-55070D01*
X50179Y-55141D01*
X50179Y-55000D01*
X49831Y-54652D01*
X49731Y-54685D01*
X49650Y-54907D01*
X49660Y-55143D01*
X49731Y-55314D01*
X49831Y-55347D01*
X50179Y-55000D01*
X50179Y-55141D01*
X49902Y-55418D01*
X49935Y-55518D01*
X50157Y-55599D01*
X50393Y-55589D01*
X50564Y-55518D01*
X50597Y-55418D01*
X50597Y-55893D01*
X50515Y-55995D01*
X50500Y-56048D01*
X50484Y-55995D01*
X50350Y-55829D01*
X50162Y-55727D01*
X50134Y-55721D01*
X50050Y-55770D01*
X50050Y-56347D01*
X50455Y-56347D01*
X50545Y-56347D01*
X50950Y-56347D01*
X50950Y-56447D01*
X50545Y-56447D01*
X50455Y-56447D01*
X50050Y-56447D01*
X50050Y-57024D01*
X50134Y-57073D01*
X50162Y-57067D01*
X50350Y-56965D01*
X50484Y-56799D01*
X50500Y-56746D01*
X50515Y-56799D01*
X50649Y-56965D01*
X50837Y-57067D01*
X50865Y-57073D01*
X50950Y-57024D01*
X50950Y-58450D01*
X49519Y-58450D01*
X49519Y-56804D01*
X49649Y-56965D01*
X49837Y-57067D01*
X49865Y-57073D01*
X49950Y-57024D01*
X49950Y-56447D01*
X49942Y-56447D01*
X49942Y-56347D01*
X49950Y-56347D01*
X49950Y-55770D01*
X49865Y-55721D01*
X49837Y-55727D01*
X49649Y-55829D01*
X49519Y-55990D01*
X49519Y-53550D01*
X54700Y-53550D01*
X54700Y-58450D01*
X54700Y-58450D01*
G37*
G54D35*
X54700Y-58450D02*
X53545Y-58450D01*
X53545Y-56595D01*
X53545Y-56447D01*
X53545Y-56347D01*
X53545Y-56200D01*
X53484Y-55995D01*
X53350Y-55829D01*
X53162Y-55727D01*
X53134Y-55721D01*
X53050Y-55770D01*
X53050Y-56347D01*
X53545Y-56347D01*
X53545Y-56447D01*
X53050Y-56447D01*
X53050Y-57024D01*
X53134Y-57073D01*
X53162Y-57067D01*
X53350Y-56965D01*
X53484Y-56799D01*
X53545Y-56595D01*
X53545Y-58450D01*
X52950Y-58450D01*
X52950Y-57024D01*
X52950Y-56447D01*
X52950Y-56347D01*
X52950Y-55770D01*
X52865Y-55721D01*
X52837Y-55727D01*
X52649Y-55829D01*
X52515Y-55995D01*
X52500Y-56048D01*
X52484Y-55995D01*
X52350Y-55829D01*
X52162Y-55727D01*
X52134Y-55721D01*
X52050Y-55770D01*
X52050Y-56347D01*
X52455Y-56347D01*
X52545Y-56347D01*
X52950Y-56347D01*
X52950Y-56447D01*
X52545Y-56447D01*
X52455Y-56447D01*
X52050Y-56447D01*
X52050Y-57024D01*
X52134Y-57073D01*
X52162Y-57067D01*
X52350Y-56965D01*
X52484Y-56799D01*
X52500Y-56746D01*
X52515Y-56799D01*
X52649Y-56965D01*
X52837Y-57067D01*
X52865Y-57073D01*
X52950Y-57024D01*
X52950Y-58450D01*
X51950Y-58450D01*
X51950Y-57024D01*
X51950Y-56447D01*
X51950Y-56347D01*
X51950Y-55770D01*
X51865Y-55721D01*
X51837Y-55727D01*
X51649Y-55829D01*
X51515Y-55995D01*
X51500Y-56048D01*
X51484Y-55995D01*
X51350Y-55829D01*
X51162Y-55727D01*
X51134Y-55721D01*
X51050Y-55770D01*
X51050Y-56347D01*
X51455Y-56347D01*
X51545Y-56347D01*
X51950Y-56347D01*
X51950Y-56447D01*
X51545Y-56447D01*
X51455Y-56447D01*
X51050Y-56447D01*
X51050Y-57024D01*
X51134Y-57073D01*
X51162Y-57067D01*
X51350Y-56965D01*
X51484Y-56799D01*
X51500Y-56746D01*
X51515Y-56799D01*
X51649Y-56965D01*
X51837Y-57067D01*
X51865Y-57073D01*
X51950Y-57024D01*
X51950Y-58450D01*
X50950Y-58450D01*
X50950Y-57024D01*
X50950Y-56447D01*
X50950Y-56347D01*
X50950Y-55770D01*
X50865Y-55721D01*
X50849Y-55724D01*
X50849Y-55092D01*
X50839Y-54856D01*
X50768Y-54685D01*
X50668Y-54652D01*
X50597Y-54722D01*
X50597Y-54581D01*
X50564Y-54481D01*
X50342Y-54400D01*
X50106Y-54410D01*
X49935Y-54481D01*
X49902Y-54581D01*
X50250Y-54929D01*
X50597Y-54581D01*
X50597Y-54722D01*
X50320Y-55000D01*
X50668Y-55347D01*
X50768Y-55314D01*
X50849Y-55092D01*
X50849Y-55724D01*
X50837Y-55727D01*
X50649Y-55829D01*
X50597Y-55893D01*
X50597Y-55418D01*
X50250Y-55070D01*
X50179Y-55141D01*
X50179Y-55000D01*
X49831Y-54652D01*
X49731Y-54685D01*
X49650Y-54907D01*
X49660Y-55143D01*
X49731Y-55314D01*
X49831Y-55347D01*
X50179Y-55000D01*
X50179Y-55141D01*
X49902Y-55418D01*
X49935Y-55518D01*
X50157Y-55599D01*
X50393Y-55589D01*
X50564Y-55518D01*
X50597Y-55418D01*
X50597Y-55893D01*
X50515Y-55995D01*
X50500Y-56048D01*
X50484Y-55995D01*
X50350Y-55829D01*
X50162Y-55727D01*
X50134Y-55721D01*
X50050Y-55770D01*
X50050Y-56347D01*
X50455Y-56347D01*
X50545Y-56347D01*
X50950Y-56347D01*
X50950Y-56447D01*
X50545Y-56447D01*
X50455Y-56447D01*
X50050Y-56447D01*
X50050Y-57024D01*
X50134Y-57073D01*
X50162Y-57067D01*
X50350Y-56965D01*
X50484Y-56799D01*
X50500Y-56746D01*
X50515Y-56799D01*
X50649Y-56965D01*
X50837Y-57067D01*
X50865Y-57073D01*
X50950Y-57024D01*
X50950Y-58450D01*
X49519Y-58450D01*
X49519Y-56804D01*
X49649Y-56965D01*
X49837Y-57067D01*
X49865Y-57073D01*
X49950Y-57024D01*
X49950Y-56447D01*
X49942Y-56447D01*
X49942Y-56347D01*
X49950Y-56347D01*
X49950Y-55770D01*
X49865Y-55721D01*
X49837Y-55727D01*
X49649Y-55829D01*
X49519Y-55990D01*
X49519Y-53550D01*
X54700Y-53550D01*
X54700Y-58450D01*
G54D10*
G36*
X53950Y-62200D02*
X53545Y-62200D01*
X53545Y-61345D01*
X53545Y-61197D01*
X53545Y-61097D01*
X53545Y-60950D01*
X53484Y-60745D01*
X53387Y-60625D01*
X53484Y-60504D01*
X53545Y-60300D01*
X53545Y-60152D01*
X53545Y-60052D01*
X53545Y-59905D01*
X53484Y-59700D01*
X53350Y-59534D01*
X53162Y-59432D01*
X53134Y-59426D01*
X53050Y-59475D01*
X53050Y-60052D01*
X53545Y-60052D01*
X53545Y-60152D01*
X53050Y-60152D01*
X53050Y-60520D01*
X53050Y-60729D01*
X53050Y-61097D01*
X53545Y-61097D01*
X53545Y-61197D01*
X53050Y-61197D01*
X53050Y-61774D01*
X53134Y-61823D01*
X53162Y-61817D01*
X53350Y-61715D01*
X53484Y-61549D01*
X53545Y-61345D01*
X53545Y-62200D01*
X52950Y-62200D01*
X52950Y-61774D01*
X52950Y-61197D01*
X52950Y-61097D01*
X52950Y-60729D01*
X52950Y-60520D01*
X52950Y-60152D01*
X52950Y-60052D01*
X52950Y-59475D01*
X52865Y-59426D01*
X52837Y-59432D01*
X52649Y-59534D01*
X52515Y-59700D01*
X52500Y-59753D01*
X52484Y-59700D01*
X52350Y-59534D01*
X52162Y-59432D01*
X52134Y-59426D01*
X52050Y-59475D01*
X52050Y-60052D01*
X52455Y-60052D01*
X52545Y-60052D01*
X52950Y-60052D01*
X52950Y-60152D01*
X52545Y-60152D01*
X52455Y-60152D01*
X52050Y-60152D01*
X52050Y-60520D01*
X52050Y-60729D01*
X52050Y-61097D01*
X52455Y-61097D01*
X52545Y-61097D01*
X52950Y-61097D01*
X52950Y-61197D01*
X52545Y-61197D01*
X52455Y-61197D01*
X52050Y-61197D01*
X52050Y-61774D01*
X52134Y-61823D01*
X52162Y-61817D01*
X52350Y-61715D01*
X52484Y-61549D01*
X52500Y-61496D01*
X52515Y-61549D01*
X52649Y-61715D01*
X52837Y-61817D01*
X52865Y-61823D01*
X52950Y-61774D01*
X52950Y-62200D01*
X51950Y-62200D01*
X51950Y-61774D01*
X51950Y-61197D01*
X51950Y-61097D01*
X51950Y-60729D01*
X51950Y-60520D01*
X51950Y-60152D01*
X51950Y-60052D01*
X51950Y-59475D01*
X51865Y-59426D01*
X51837Y-59432D01*
X51649Y-59534D01*
X51515Y-59700D01*
X51500Y-59753D01*
X51484Y-59700D01*
X51350Y-59534D01*
X51162Y-59432D01*
X51134Y-59426D01*
X51050Y-59475D01*
X51050Y-60052D01*
X51455Y-60052D01*
X51545Y-60052D01*
X51950Y-60052D01*
X51950Y-60152D01*
X51545Y-60152D01*
X51455Y-60152D01*
X51050Y-60152D01*
X51050Y-60520D01*
X51050Y-60729D01*
X51050Y-61097D01*
X51455Y-61097D01*
X51545Y-61097D01*
X51950Y-61097D01*
X51950Y-61197D01*
X51545Y-61197D01*
X51455Y-61197D01*
X51050Y-61197D01*
X51050Y-61774D01*
X51134Y-61823D01*
X51162Y-61817D01*
X51350Y-61715D01*
X51484Y-61549D01*
X51500Y-61496D01*
X51515Y-61549D01*
X51649Y-61715D01*
X51837Y-61817D01*
X51865Y-61823D01*
X51950Y-61774D01*
X51950Y-62200D01*
X50950Y-62200D01*
X50950Y-61774D01*
X50950Y-61197D01*
X50950Y-61097D01*
X50950Y-60729D01*
X50950Y-60520D01*
X50950Y-60152D01*
X50950Y-60052D01*
X50950Y-59475D01*
X50865Y-59426D01*
X50837Y-59432D01*
X50649Y-59534D01*
X50515Y-59700D01*
X50500Y-59753D01*
X50484Y-59700D01*
X50350Y-59534D01*
X50162Y-59432D01*
X50134Y-59426D01*
X50050Y-59475D01*
X50050Y-60052D01*
X50455Y-60052D01*
X50545Y-60052D01*
X50950Y-60052D01*
X50950Y-60152D01*
X50545Y-60152D01*
X50455Y-60152D01*
X50050Y-60152D01*
X50050Y-60520D01*
X50050Y-60729D01*
X50050Y-61097D01*
X50455Y-61097D01*
X50545Y-61097D01*
X50950Y-61097D01*
X50950Y-61197D01*
X50545Y-61197D01*
X50455Y-61197D01*
X50050Y-61197D01*
X50050Y-61774D01*
X50134Y-61823D01*
X50162Y-61817D01*
X50350Y-61715D01*
X50484Y-61549D01*
X50500Y-61496D01*
X50515Y-61549D01*
X50649Y-61715D01*
X50837Y-61817D01*
X50865Y-61823D01*
X50950Y-61774D01*
X50950Y-62200D01*
X49519Y-62200D01*
X49519Y-61554D01*
X49649Y-61715D01*
X49837Y-61817D01*
X49865Y-61823D01*
X49950Y-61774D01*
X49950Y-61197D01*
X49942Y-61197D01*
X49942Y-61097D01*
X49950Y-61097D01*
X49950Y-60729D01*
X49950Y-60520D01*
X49950Y-60152D01*
X49942Y-60152D01*
X49942Y-60052D01*
X49950Y-60052D01*
X49950Y-59475D01*
X49865Y-59426D01*
X49837Y-59432D01*
X49649Y-59534D01*
X49519Y-59695D01*
X49519Y-58800D01*
X53950Y-58800D01*
X53950Y-62200D01*
X53950Y-62200D01*
G37*
G54D35*
X53950Y-62200D02*
X53545Y-62200D01*
X53545Y-61345D01*
X53545Y-61197D01*
X53545Y-61097D01*
X53545Y-60950D01*
X53484Y-60745D01*
X53387Y-60625D01*
X53484Y-60504D01*
X53545Y-60300D01*
X53545Y-60152D01*
X53545Y-60052D01*
X53545Y-59905D01*
X53484Y-59700D01*
X53350Y-59534D01*
X53162Y-59432D01*
X53134Y-59426D01*
X53050Y-59475D01*
X53050Y-60052D01*
X53545Y-60052D01*
X53545Y-60152D01*
X53050Y-60152D01*
X53050Y-60520D01*
X53050Y-60729D01*
X53050Y-61097D01*
X53545Y-61097D01*
X53545Y-61197D01*
X53050Y-61197D01*
X53050Y-61774D01*
X53134Y-61823D01*
X53162Y-61817D01*
X53350Y-61715D01*
X53484Y-61549D01*
X53545Y-61345D01*
X53545Y-62200D01*
X52950Y-62200D01*
X52950Y-61774D01*
X52950Y-61197D01*
X52950Y-61097D01*
X52950Y-60729D01*
X52950Y-60520D01*
X52950Y-60152D01*
X52950Y-60052D01*
X52950Y-59475D01*
X52865Y-59426D01*
X52837Y-59432D01*
X52649Y-59534D01*
X52515Y-59700D01*
X52500Y-59753D01*
X52484Y-59700D01*
X52350Y-59534D01*
X52162Y-59432D01*
X52134Y-59426D01*
X52050Y-59475D01*
X52050Y-60052D01*
X52455Y-60052D01*
X52545Y-60052D01*
X52950Y-60052D01*
X52950Y-60152D01*
X52545Y-60152D01*
X52455Y-60152D01*
X52050Y-60152D01*
X52050Y-60520D01*
X52050Y-60729D01*
X52050Y-61097D01*
X52455Y-61097D01*
X52545Y-61097D01*
X52950Y-61097D01*
X52950Y-61197D01*
X52545Y-61197D01*
X52455Y-61197D01*
X52050Y-61197D01*
X52050Y-61774D01*
X52134Y-61823D01*
X52162Y-61817D01*
X52350Y-61715D01*
X52484Y-61549D01*
X52500Y-61496D01*
X52515Y-61549D01*
X52649Y-61715D01*
X52837Y-61817D01*
X52865Y-61823D01*
X52950Y-61774D01*
X52950Y-62200D01*
X51950Y-62200D01*
X51950Y-61774D01*
X51950Y-61197D01*
X51950Y-61097D01*
X51950Y-60729D01*
X51950Y-60520D01*
X51950Y-60152D01*
X51950Y-60052D01*
X51950Y-59475D01*
X51865Y-59426D01*
X51837Y-59432D01*
X51649Y-59534D01*
X51515Y-59700D01*
X51500Y-59753D01*
X51484Y-59700D01*
X51350Y-59534D01*
X51162Y-59432D01*
X51134Y-59426D01*
X51050Y-59475D01*
X51050Y-60052D01*
X51455Y-60052D01*
X51545Y-60052D01*
X51950Y-60052D01*
X51950Y-60152D01*
X51545Y-60152D01*
X51455Y-60152D01*
X51050Y-60152D01*
X51050Y-60520D01*
X51050Y-60729D01*
X51050Y-61097D01*
X51455Y-61097D01*
X51545Y-61097D01*
X51950Y-61097D01*
X51950Y-61197D01*
X51545Y-61197D01*
X51455Y-61197D01*
X51050Y-61197D01*
X51050Y-61774D01*
X51134Y-61823D01*
X51162Y-61817D01*
X51350Y-61715D01*
X51484Y-61549D01*
X51500Y-61496D01*
X51515Y-61549D01*
X51649Y-61715D01*
X51837Y-61817D01*
X51865Y-61823D01*
X51950Y-61774D01*
X51950Y-62200D01*
X50950Y-62200D01*
X50950Y-61774D01*
X50950Y-61197D01*
X50950Y-61097D01*
X50950Y-60729D01*
X50950Y-60520D01*
X50950Y-60152D01*
X50950Y-60052D01*
X50950Y-59475D01*
X50865Y-59426D01*
X50837Y-59432D01*
X50649Y-59534D01*
X50515Y-59700D01*
X50500Y-59753D01*
X50484Y-59700D01*
X50350Y-59534D01*
X50162Y-59432D01*
X50134Y-59426D01*
X50050Y-59475D01*
X50050Y-60052D01*
X50455Y-60052D01*
X50545Y-60052D01*
X50950Y-60052D01*
X50950Y-60152D01*
X50545Y-60152D01*
X50455Y-60152D01*
X50050Y-60152D01*
X50050Y-60520D01*
X50050Y-60729D01*
X50050Y-61097D01*
X50455Y-61097D01*
X50545Y-61097D01*
X50950Y-61097D01*
X50950Y-61197D01*
X50545Y-61197D01*
X50455Y-61197D01*
X50050Y-61197D01*
X50050Y-61774D01*
X50134Y-61823D01*
X50162Y-61817D01*
X50350Y-61715D01*
X50484Y-61549D01*
X50500Y-61496D01*
X50515Y-61549D01*
X50649Y-61715D01*
X50837Y-61817D01*
X50865Y-61823D01*
X50950Y-61774D01*
X50950Y-62200D01*
X49519Y-62200D01*
X49519Y-61554D01*
X49649Y-61715D01*
X49837Y-61817D01*
X49865Y-61823D01*
X49950Y-61774D01*
X49950Y-61197D01*
X49942Y-61197D01*
X49942Y-61097D01*
X49950Y-61097D01*
X49950Y-60729D01*
X49950Y-60520D01*
X49950Y-60152D01*
X49942Y-60152D01*
X49942Y-60052D01*
X49950Y-60052D01*
X49950Y-59475D01*
X49865Y-59426D01*
X49837Y-59432D01*
X49649Y-59534D01*
X49519Y-59695D01*
X49519Y-58800D01*
X53950Y-58800D01*
X53950Y-62200D01*
G54D10*
G36*
X59200Y-64700D02*
X57200Y-64700D01*
X57200Y-66200D01*
X56121Y-66200D01*
X56121Y-63668D01*
X55773Y-63320D01*
X55702Y-63391D01*
X55702Y-63250D01*
X55355Y-62902D01*
X55255Y-62935D01*
X55174Y-63157D01*
X55184Y-63393D01*
X55255Y-63564D01*
X55355Y-63597D01*
X55702Y-63250D01*
X55702Y-63391D01*
X55425Y-63668D01*
X55458Y-63768D01*
X55681Y-63849D01*
X55917Y-63839D01*
X56088Y-63768D01*
X56121Y-63668D01*
X56121Y-66200D01*
X53545Y-66200D01*
X53545Y-65050D01*
X53545Y-64902D01*
X53545Y-64802D01*
X53545Y-64655D01*
X53484Y-64450D01*
X53350Y-64284D01*
X53162Y-64182D01*
X53134Y-64176D01*
X53050Y-64225D01*
X53050Y-64802D01*
X53545Y-64802D01*
X53545Y-64902D01*
X53050Y-64902D01*
X53050Y-65479D01*
X53134Y-65528D01*
X53162Y-65522D01*
X53350Y-65420D01*
X53484Y-65254D01*
X53545Y-65050D01*
X53545Y-66200D01*
X52950Y-66200D01*
X52950Y-65479D01*
X52950Y-64902D01*
X52950Y-64802D01*
X52950Y-64225D01*
X52865Y-64176D01*
X52837Y-64182D01*
X52649Y-64284D01*
X52515Y-64450D01*
X52500Y-64503D01*
X52484Y-64450D01*
X52350Y-64284D01*
X52162Y-64182D01*
X52134Y-64176D01*
X52050Y-64225D01*
X52050Y-64802D01*
X52455Y-64802D01*
X52545Y-64802D01*
X52950Y-64802D01*
X52950Y-64902D01*
X52545Y-64902D01*
X52455Y-64902D01*
X52050Y-64902D01*
X52050Y-65479D01*
X52134Y-65528D01*
X52162Y-65522D01*
X52350Y-65420D01*
X52484Y-65254D01*
X52500Y-65201D01*
X52515Y-65254D01*
X52649Y-65420D01*
X52837Y-65522D01*
X52865Y-65528D01*
X52950Y-65479D01*
X52950Y-66200D01*
X51950Y-66200D01*
X51950Y-65479D01*
X51950Y-64902D01*
X51950Y-64802D01*
X51950Y-64225D01*
X51865Y-64176D01*
X51837Y-64182D01*
X51649Y-64284D01*
X51515Y-64450D01*
X51500Y-64503D01*
X51484Y-64450D01*
X51350Y-64284D01*
X51162Y-64182D01*
X51134Y-64176D01*
X51050Y-64225D01*
X51050Y-64802D01*
X51455Y-64802D01*
X51545Y-64802D01*
X51950Y-64802D01*
X51950Y-64902D01*
X51545Y-64902D01*
X51455Y-64902D01*
X51050Y-64902D01*
X51050Y-65479D01*
X51134Y-65528D01*
X51162Y-65522D01*
X51350Y-65420D01*
X51484Y-65254D01*
X51500Y-65201D01*
X51515Y-65254D01*
X51649Y-65420D01*
X51837Y-65522D01*
X51865Y-65528D01*
X51950Y-65479D01*
X51950Y-66200D01*
X51700Y-66200D01*
X51700Y-67200D01*
X51323Y-67200D01*
X51323Y-66384D01*
X51323Y-66115D01*
X51317Y-66087D01*
X51215Y-65899D01*
X51049Y-65765D01*
X50950Y-65736D01*
X50950Y-65479D01*
X50950Y-64902D01*
X50950Y-64802D01*
X50950Y-64225D01*
X50865Y-64176D01*
X50837Y-64182D01*
X50649Y-64284D01*
X50515Y-64450D01*
X50500Y-64503D01*
X50484Y-64450D01*
X50350Y-64284D01*
X50162Y-64182D01*
X50134Y-64176D01*
X50050Y-64225D01*
X50050Y-64802D01*
X50455Y-64802D01*
X50545Y-64802D01*
X50950Y-64802D01*
X50950Y-64902D01*
X50545Y-64902D01*
X50455Y-64902D01*
X50050Y-64902D01*
X50050Y-65479D01*
X50134Y-65528D01*
X50162Y-65522D01*
X50350Y-65420D01*
X50484Y-65254D01*
X50500Y-65201D01*
X50515Y-65254D01*
X50649Y-65420D01*
X50837Y-65522D01*
X50865Y-65528D01*
X50950Y-65479D01*
X50950Y-65736D01*
X50845Y-65705D01*
X50550Y-65705D01*
X50550Y-66200D01*
X51274Y-66200D01*
X51323Y-66115D01*
X51323Y-66384D01*
X51274Y-66300D01*
X50550Y-66300D01*
X50550Y-66795D01*
X50845Y-66795D01*
X51049Y-66734D01*
X51215Y-66600D01*
X51317Y-66412D01*
X51323Y-66384D01*
X51323Y-67200D01*
X50450Y-67200D01*
X50450Y-66795D01*
X50450Y-66300D01*
X50450Y-66200D01*
X50450Y-65705D01*
X50155Y-65705D01*
X49950Y-65765D01*
X49784Y-65899D01*
X49682Y-66087D01*
X49676Y-66115D01*
X49725Y-66200D01*
X50450Y-66200D01*
X50450Y-66300D01*
X49725Y-66300D01*
X49676Y-66384D01*
X49682Y-66412D01*
X49784Y-66600D01*
X49950Y-66734D01*
X50155Y-66795D01*
X50450Y-66795D01*
X50450Y-67200D01*
X49519Y-67200D01*
X49519Y-65259D01*
X49649Y-65420D01*
X49837Y-65522D01*
X49865Y-65528D01*
X49950Y-65479D01*
X49950Y-64902D01*
X49942Y-64902D01*
X49942Y-64802D01*
X49950Y-64802D01*
X49950Y-64225D01*
X49865Y-64176D01*
X49837Y-64182D01*
X49649Y-64284D01*
X49519Y-64445D01*
X49519Y-62550D01*
X54300Y-62550D01*
X54300Y-58800D01*
X55050Y-58800D01*
X55050Y-57550D01*
X59200Y-57550D01*
X59200Y-62882D01*
X59063Y-62745D01*
X58845Y-62655D01*
X58608Y-62654D01*
X58389Y-62745D01*
X58222Y-62912D01*
X58131Y-63131D01*
X58131Y-63295D01*
X58095Y-63295D01*
X58095Y-58800D01*
X58095Y-58627D01*
X58095Y-58527D01*
X58095Y-58355D01*
X58030Y-58131D01*
X57885Y-57948D01*
X57681Y-57836D01*
X57642Y-57827D01*
X57550Y-57874D01*
X57550Y-58527D01*
X58095Y-58527D01*
X58095Y-58627D01*
X57550Y-58627D01*
X57550Y-59280D01*
X57642Y-59327D01*
X57681Y-59318D01*
X57885Y-59206D01*
X58030Y-59023D01*
X58095Y-58800D01*
X58095Y-63295D01*
X57929Y-63295D01*
X57799Y-63349D01*
X57799Y-62641D01*
X57788Y-62425D01*
X57727Y-62276D01*
X57632Y-62249D01*
X57561Y-62320D01*
X57561Y-62178D01*
X57534Y-62083D01*
X57450Y-62053D01*
X57450Y-59280D01*
X57450Y-58627D01*
X57450Y-58527D01*
X57450Y-57874D01*
X57357Y-57827D01*
X57318Y-57836D01*
X57114Y-57948D01*
X56969Y-58131D01*
X56905Y-58355D01*
X56905Y-58527D01*
X57450Y-58527D01*
X57450Y-58627D01*
X56905Y-58627D01*
X56905Y-58800D01*
X56969Y-59023D01*
X57114Y-59206D01*
X57318Y-59318D01*
X57357Y-59327D01*
X57450Y-59280D01*
X57450Y-62053D01*
X57330Y-62011D01*
X57114Y-62022D01*
X56965Y-62083D01*
X56938Y-62178D01*
X57250Y-62490D01*
X57561Y-62178D01*
X57561Y-62320D01*
X57320Y-62561D01*
X57632Y-62872D01*
X57727Y-62845D01*
X57799Y-62641D01*
X57799Y-63349D01*
X57729Y-63378D01*
X57594Y-63512D01*
X57561Y-63479D01*
X57561Y-62943D01*
X57250Y-62631D01*
X57244Y-62637D01*
X57173Y-62566D01*
X57179Y-62561D01*
X56867Y-62249D01*
X56843Y-62256D01*
X56819Y-62231D01*
X56776Y-62275D01*
X56773Y-62275D01*
X56747Y-62182D01*
X56543Y-62109D01*
X56326Y-62120D01*
X56177Y-62182D01*
X56151Y-62277D01*
X56462Y-62588D01*
X56468Y-62583D01*
X56538Y-62653D01*
X56533Y-62659D01*
X56844Y-62971D01*
X56868Y-62964D01*
X56893Y-62988D01*
X56936Y-62945D01*
X56938Y-62944D01*
X56965Y-63038D01*
X57169Y-63110D01*
X57385Y-63099D01*
X57534Y-63038D01*
X57561Y-62943D01*
X57561Y-63479D01*
X57559Y-63477D01*
X57358Y-63394D01*
X57142Y-63393D01*
X56941Y-63476D01*
X56788Y-63629D01*
X56774Y-63663D01*
X56774Y-63041D01*
X56462Y-62730D01*
X56457Y-62735D01*
X56391Y-62670D01*
X56386Y-62665D01*
X56391Y-62659D01*
X56080Y-62347D01*
X55985Y-62374D01*
X55912Y-62578D01*
X55917Y-62669D01*
X55866Y-62650D01*
X55629Y-62660D01*
X55458Y-62731D01*
X55425Y-62831D01*
X55773Y-63179D01*
X55779Y-63173D01*
X55849Y-63244D01*
X55844Y-63250D01*
X56192Y-63597D01*
X56292Y-63564D01*
X56373Y-63342D01*
X56367Y-63203D01*
X56382Y-63209D01*
X56598Y-63198D01*
X56747Y-63136D01*
X56774Y-63041D01*
X56774Y-63663D01*
X56705Y-63830D01*
X56704Y-64046D01*
X56787Y-64247D01*
X56940Y-64400D01*
X57141Y-64483D01*
X57357Y-64484D01*
X57558Y-64401D01*
X57692Y-64266D01*
X57728Y-64302D01*
X57928Y-64385D01*
X58145Y-64385D01*
X58345Y-64302D01*
X58499Y-64149D01*
X58582Y-63949D01*
X58582Y-63834D01*
X58607Y-63844D01*
X58844Y-63845D01*
X59062Y-63754D01*
X59200Y-63617D01*
X59200Y-64700D01*
X59200Y-64700D01*
G37*
G54D35*
X59200Y-64700D02*
X57200Y-64700D01*
X57200Y-66200D01*
X56121Y-66200D01*
X56121Y-63668D01*
X55773Y-63320D01*
X55702Y-63391D01*
X55702Y-63250D01*
X55355Y-62902D01*
X55255Y-62935D01*
X55174Y-63157D01*
X55184Y-63393D01*
X55255Y-63564D01*
X55355Y-63597D01*
X55702Y-63250D01*
X55702Y-63391D01*
X55425Y-63668D01*
X55458Y-63768D01*
X55681Y-63849D01*
X55917Y-63839D01*
X56088Y-63768D01*
X56121Y-63668D01*
X56121Y-66200D01*
X53545Y-66200D01*
X53545Y-65050D01*
X53545Y-64902D01*
X53545Y-64802D01*
X53545Y-64655D01*
X53484Y-64450D01*
X53350Y-64284D01*
X53162Y-64182D01*
X53134Y-64176D01*
X53050Y-64225D01*
X53050Y-64802D01*
X53545Y-64802D01*
X53545Y-64902D01*
X53050Y-64902D01*
X53050Y-65479D01*
X53134Y-65528D01*
X53162Y-65522D01*
X53350Y-65420D01*
X53484Y-65254D01*
X53545Y-65050D01*
X53545Y-66200D01*
X52950Y-66200D01*
X52950Y-65479D01*
X52950Y-64902D01*
X52950Y-64802D01*
X52950Y-64225D01*
X52865Y-64176D01*
X52837Y-64182D01*
X52649Y-64284D01*
X52515Y-64450D01*
X52500Y-64503D01*
X52484Y-64450D01*
X52350Y-64284D01*
X52162Y-64182D01*
X52134Y-64176D01*
X52050Y-64225D01*
X52050Y-64802D01*
X52455Y-64802D01*
X52545Y-64802D01*
X52950Y-64802D01*
X52950Y-64902D01*
X52545Y-64902D01*
X52455Y-64902D01*
X52050Y-64902D01*
X52050Y-65479D01*
X52134Y-65528D01*
X52162Y-65522D01*
X52350Y-65420D01*
X52484Y-65254D01*
X52500Y-65201D01*
X52515Y-65254D01*
X52649Y-65420D01*
X52837Y-65522D01*
X52865Y-65528D01*
X52950Y-65479D01*
X52950Y-66200D01*
X51950Y-66200D01*
X51950Y-65479D01*
X51950Y-64902D01*
X51950Y-64802D01*
X51950Y-64225D01*
X51865Y-64176D01*
X51837Y-64182D01*
X51649Y-64284D01*
X51515Y-64450D01*
X51500Y-64503D01*
X51484Y-64450D01*
X51350Y-64284D01*
X51162Y-64182D01*
X51134Y-64176D01*
X51050Y-64225D01*
X51050Y-64802D01*
X51455Y-64802D01*
X51545Y-64802D01*
X51950Y-64802D01*
X51950Y-64902D01*
X51545Y-64902D01*
X51455Y-64902D01*
X51050Y-64902D01*
X51050Y-65479D01*
X51134Y-65528D01*
X51162Y-65522D01*
X51350Y-65420D01*
X51484Y-65254D01*
X51500Y-65201D01*
X51515Y-65254D01*
X51649Y-65420D01*
X51837Y-65522D01*
X51865Y-65528D01*
X51950Y-65479D01*
X51950Y-66200D01*
X51700Y-66200D01*
X51700Y-67200D01*
X51323Y-67200D01*
X51323Y-66384D01*
X51323Y-66115D01*
X51317Y-66087D01*
X51215Y-65899D01*
X51049Y-65765D01*
X50950Y-65736D01*
X50950Y-65479D01*
X50950Y-64902D01*
X50950Y-64802D01*
X50950Y-64225D01*
X50865Y-64176D01*
X50837Y-64182D01*
X50649Y-64284D01*
X50515Y-64450D01*
X50500Y-64503D01*
X50484Y-64450D01*
X50350Y-64284D01*
X50162Y-64182D01*
X50134Y-64176D01*
X50050Y-64225D01*
X50050Y-64802D01*
X50455Y-64802D01*
X50545Y-64802D01*
X50950Y-64802D01*
X50950Y-64902D01*
X50545Y-64902D01*
X50455Y-64902D01*
X50050Y-64902D01*
X50050Y-65479D01*
X50134Y-65528D01*
X50162Y-65522D01*
X50350Y-65420D01*
X50484Y-65254D01*
X50500Y-65201D01*
X50515Y-65254D01*
X50649Y-65420D01*
X50837Y-65522D01*
X50865Y-65528D01*
X50950Y-65479D01*
X50950Y-65736D01*
X50845Y-65705D01*
X50550Y-65705D01*
X50550Y-66200D01*
X51274Y-66200D01*
X51323Y-66115D01*
X51323Y-66384D01*
X51274Y-66300D01*
X50550Y-66300D01*
X50550Y-66795D01*
X50845Y-66795D01*
X51049Y-66734D01*
X51215Y-66600D01*
X51317Y-66412D01*
X51323Y-66384D01*
X51323Y-67200D01*
X50450Y-67200D01*
X50450Y-66795D01*
X50450Y-66300D01*
X50450Y-66200D01*
X50450Y-65705D01*
X50155Y-65705D01*
X49950Y-65765D01*
X49784Y-65899D01*
X49682Y-66087D01*
X49676Y-66115D01*
X49725Y-66200D01*
X50450Y-66200D01*
X50450Y-66300D01*
X49725Y-66300D01*
X49676Y-66384D01*
X49682Y-66412D01*
X49784Y-66600D01*
X49950Y-66734D01*
X50155Y-66795D01*
X50450Y-66795D01*
X50450Y-67200D01*
X49519Y-67200D01*
X49519Y-65259D01*
X49649Y-65420D01*
X49837Y-65522D01*
X49865Y-65528D01*
X49950Y-65479D01*
X49950Y-64902D01*
X49942Y-64902D01*
X49942Y-64802D01*
X49950Y-64802D01*
X49950Y-64225D01*
X49865Y-64176D01*
X49837Y-64182D01*
X49649Y-64284D01*
X49519Y-64445D01*
X49519Y-62550D01*
X54300Y-62550D01*
X54300Y-58800D01*
X55050Y-58800D01*
X55050Y-57550D01*
X59200Y-57550D01*
X59200Y-62882D01*
X59063Y-62745D01*
X58845Y-62655D01*
X58608Y-62654D01*
X58389Y-62745D01*
X58222Y-62912D01*
X58131Y-63131D01*
X58131Y-63295D01*
X58095Y-63295D01*
X58095Y-58800D01*
X58095Y-58627D01*
X58095Y-58527D01*
X58095Y-58355D01*
X58030Y-58131D01*
X57885Y-57948D01*
X57681Y-57836D01*
X57642Y-57827D01*
X57550Y-57874D01*
X57550Y-58527D01*
X58095Y-58527D01*
X58095Y-58627D01*
X57550Y-58627D01*
X57550Y-59280D01*
X57642Y-59327D01*
X57681Y-59318D01*
X57885Y-59206D01*
X58030Y-59023D01*
X58095Y-58800D01*
X58095Y-63295D01*
X57929Y-63295D01*
X57799Y-63349D01*
X57799Y-62641D01*
X57788Y-62425D01*
X57727Y-62276D01*
X57632Y-62249D01*
X57561Y-62320D01*
X57561Y-62178D01*
X57534Y-62083D01*
X57450Y-62053D01*
X57450Y-59280D01*
X57450Y-58627D01*
X57450Y-58527D01*
X57450Y-57874D01*
X57357Y-57827D01*
X57318Y-57836D01*
X57114Y-57948D01*
X56969Y-58131D01*
X56905Y-58355D01*
X56905Y-58527D01*
X57450Y-58527D01*
X57450Y-58627D01*
X56905Y-58627D01*
X56905Y-58800D01*
X56969Y-59023D01*
X57114Y-59206D01*
X57318Y-59318D01*
X57357Y-59327D01*
X57450Y-59280D01*
X57450Y-62053D01*
X57330Y-62011D01*
X57114Y-62022D01*
X56965Y-62083D01*
X56938Y-62178D01*
X57250Y-62490D01*
X57561Y-62178D01*
X57561Y-62320D01*
X57320Y-62561D01*
X57632Y-62872D01*
X57727Y-62845D01*
X57799Y-62641D01*
X57799Y-63349D01*
X57729Y-63378D01*
X57594Y-63512D01*
X57561Y-63479D01*
X57561Y-62943D01*
X57250Y-62631D01*
X57244Y-62637D01*
X57173Y-62566D01*
X57179Y-62561D01*
X56867Y-62249D01*
X56843Y-62256D01*
X56819Y-62231D01*
X56776Y-62275D01*
X56773Y-62275D01*
X56747Y-62182D01*
X56543Y-62109D01*
X56326Y-62120D01*
X56177Y-62182D01*
X56151Y-62277D01*
X56462Y-62588D01*
X56468Y-62583D01*
X56538Y-62653D01*
X56533Y-62659D01*
X56844Y-62971D01*
X56868Y-62964D01*
X56893Y-62988D01*
X56936Y-62945D01*
X56938Y-62944D01*
X56965Y-63038D01*
X57169Y-63110D01*
X57385Y-63099D01*
X57534Y-63038D01*
X57561Y-62943D01*
X57561Y-63479D01*
X57559Y-63477D01*
X57358Y-63394D01*
X57142Y-63393D01*
X56941Y-63476D01*
X56788Y-63629D01*
X56774Y-63663D01*
X56774Y-63041D01*
X56462Y-62730D01*
X56457Y-62735D01*
X56391Y-62670D01*
X56386Y-62665D01*
X56391Y-62659D01*
X56080Y-62347D01*
X55985Y-62374D01*
X55912Y-62578D01*
X55917Y-62669D01*
X55866Y-62650D01*
X55629Y-62660D01*
X55458Y-62731D01*
X55425Y-62831D01*
X55773Y-63179D01*
X55779Y-63173D01*
X55849Y-63244D01*
X55844Y-63250D01*
X56192Y-63597D01*
X56292Y-63564D01*
X56373Y-63342D01*
X56367Y-63203D01*
X56382Y-63209D01*
X56598Y-63198D01*
X56747Y-63136D01*
X56774Y-63041D01*
X56774Y-63663D01*
X56705Y-63830D01*
X56704Y-64046D01*
X56787Y-64247D01*
X56940Y-64400D01*
X57141Y-64483D01*
X57357Y-64484D01*
X57558Y-64401D01*
X57692Y-64266D01*
X57728Y-64302D01*
X57928Y-64385D01*
X58145Y-64385D01*
X58345Y-64302D01*
X58499Y-64149D01*
X58582Y-63949D01*
X58582Y-63834D01*
X58607Y-63844D01*
X58844Y-63845D01*
X59062Y-63754D01*
X59200Y-63617D01*
X59200Y-64700D01*
G54D10*
G36*
X68650Y-50450D02*
X68163Y-50450D01*
X68163Y-48690D01*
X68123Y-48600D01*
X67527Y-48600D01*
X67527Y-49038D01*
X67622Y-49104D01*
X67852Y-49050D01*
X68043Y-48911D01*
X68163Y-48690D01*
X68163Y-50450D01*
X67327Y-50450D01*
X67327Y-49038D01*
X67327Y-48600D01*
X66731Y-48600D01*
X66691Y-48690D01*
X66811Y-48911D01*
X67002Y-49050D01*
X67232Y-49104D01*
X67327Y-49038D01*
X67327Y-50450D01*
X66479Y-50450D01*
X64229Y-52700D01*
X63355Y-52700D01*
X63355Y-51292D01*
X63325Y-51057D01*
X63292Y-50979D01*
X63198Y-50942D01*
X63057Y-51083D01*
X63057Y-50801D01*
X63020Y-50707D01*
X62792Y-50644D01*
X62557Y-50674D01*
X62479Y-50707D01*
X62442Y-50801D01*
X62750Y-51108D01*
X63057Y-50801D01*
X63057Y-51083D01*
X62891Y-51250D01*
X63198Y-51557D01*
X63292Y-51520D01*
X63355Y-51292D01*
X63355Y-52700D01*
X63057Y-52700D01*
X63057Y-51698D01*
X62750Y-51391D01*
X62608Y-51532D01*
X62608Y-51250D01*
X62301Y-50942D01*
X62207Y-50979D01*
X62144Y-51207D01*
X62174Y-51442D01*
X62207Y-51520D01*
X62301Y-51557D01*
X62608Y-51250D01*
X62608Y-51532D01*
X62442Y-51698D01*
X62479Y-51792D01*
X62707Y-51855D01*
X62942Y-51825D01*
X63020Y-51792D01*
X63057Y-51698D01*
X63057Y-52700D01*
X61800Y-52700D01*
X61800Y-50525D01*
X64766Y-48300D01*
X66696Y-48300D01*
X66691Y-48309D01*
X66731Y-48400D01*
X67327Y-48400D01*
X67327Y-48392D01*
X67527Y-48392D01*
X67527Y-48400D01*
X68123Y-48400D01*
X68163Y-48309D01*
X68158Y-48300D01*
X68650Y-48300D01*
X68650Y-49500D01*
X68650Y-50450D01*
X68650Y-50450D01*
G37*
G54D35*
X68650Y-50450D02*
X68163Y-50450D01*
X68163Y-48690D01*
X68123Y-48600D01*
X67527Y-48600D01*
X67527Y-49038D01*
X67622Y-49104D01*
X67852Y-49050D01*
X68043Y-48911D01*
X68163Y-48690D01*
X68163Y-50450D01*
X67327Y-50450D01*
X67327Y-49038D01*
X67327Y-48600D01*
X66731Y-48600D01*
X66691Y-48690D01*
X66811Y-48911D01*
X67002Y-49050D01*
X67232Y-49104D01*
X67327Y-49038D01*
X67327Y-50450D01*
X66479Y-50450D01*
X64229Y-52700D01*
X63355Y-52700D01*
X63355Y-51292D01*
X63325Y-51057D01*
X63292Y-50979D01*
X63198Y-50942D01*
X63057Y-51083D01*
X63057Y-50801D01*
X63020Y-50707D01*
X62792Y-50644D01*
X62557Y-50674D01*
X62479Y-50707D01*
X62442Y-50801D01*
X62750Y-51108D01*
X63057Y-50801D01*
X63057Y-51083D01*
X62891Y-51250D01*
X63198Y-51557D01*
X63292Y-51520D01*
X63355Y-51292D01*
X63355Y-52700D01*
X63057Y-52700D01*
X63057Y-51698D01*
X62750Y-51391D01*
X62608Y-51532D01*
X62608Y-51250D01*
X62301Y-50942D01*
X62207Y-50979D01*
X62144Y-51207D01*
X62174Y-51442D01*
X62207Y-51520D01*
X62301Y-51557D01*
X62608Y-51250D01*
X62608Y-51532D01*
X62442Y-51698D01*
X62479Y-51792D01*
X62707Y-51855D01*
X62942Y-51825D01*
X63020Y-51792D01*
X63057Y-51698D01*
X63057Y-52700D01*
X61800Y-52700D01*
X61800Y-50525D01*
X64766Y-48300D01*
X66696Y-48300D01*
X66691Y-48309D01*
X66731Y-48400D01*
X67327Y-48400D01*
X67327Y-48392D01*
X67527Y-48392D01*
X67527Y-48400D01*
X68123Y-48400D01*
X68163Y-48309D01*
X68158Y-48300D01*
X68650Y-48300D01*
X68650Y-49500D01*
X68650Y-50450D01*
G54D10*
G36*
X68200Y-47950D02*
X67991Y-47950D01*
X68043Y-47911D01*
X68163Y-47690D01*
X68123Y-47600D01*
X67527Y-47600D01*
X67527Y-47607D01*
X67327Y-47607D01*
X67327Y-47600D01*
X66731Y-47600D01*
X66691Y-47690D01*
X66811Y-47911D01*
X66863Y-47950D01*
X64483Y-47950D01*
X61450Y-50225D01*
X61450Y-50402D01*
X61361Y-50288D01*
X61182Y-50191D01*
X61100Y-50232D01*
X61100Y-50752D01*
X61107Y-50752D01*
X61107Y-50952D01*
X61100Y-50952D01*
X61100Y-51472D01*
X61182Y-51513D01*
X61361Y-51416D01*
X61450Y-51302D01*
X61450Y-53450D01*
X61308Y-53450D01*
X61308Y-52682D01*
X61308Y-52317D01*
X61251Y-52185D01*
X61095Y-52034D01*
X60900Y-51956D01*
X60900Y-51472D01*
X60900Y-50952D01*
X60900Y-50752D01*
X60900Y-50232D01*
X60817Y-50191D01*
X60638Y-50288D01*
X60506Y-50458D01*
X60500Y-50483D01*
X60493Y-50458D01*
X60361Y-50288D01*
X60182Y-50191D01*
X60100Y-50232D01*
X60100Y-50752D01*
X60486Y-50752D01*
X60500Y-50734D01*
X60513Y-50752D01*
X60900Y-50752D01*
X60900Y-50952D01*
X60513Y-50952D01*
X60500Y-50970D01*
X60486Y-50952D01*
X60100Y-50952D01*
X60100Y-51472D01*
X60182Y-51513D01*
X60361Y-51416D01*
X60493Y-51246D01*
X60500Y-51221D01*
X60506Y-51246D01*
X60638Y-51416D01*
X60817Y-51513D01*
X60900Y-51472D01*
X60900Y-51956D01*
X60895Y-51955D01*
X60600Y-51955D01*
X60600Y-52400D01*
X61267Y-52400D01*
X61308Y-52317D01*
X61308Y-52682D01*
X61267Y-52600D01*
X60600Y-52600D01*
X60600Y-53045D01*
X60895Y-53045D01*
X61095Y-52965D01*
X61251Y-52814D01*
X61308Y-52682D01*
X61308Y-53450D01*
X60400Y-53450D01*
X60400Y-53045D01*
X60400Y-52600D01*
X60400Y-52400D01*
X60400Y-51955D01*
X60105Y-51955D01*
X59904Y-52034D01*
X59900Y-52038D01*
X59900Y-51472D01*
X59900Y-50952D01*
X59900Y-50752D01*
X59900Y-50232D01*
X59817Y-50191D01*
X59638Y-50288D01*
X59506Y-50458D01*
X59449Y-50665D01*
X59513Y-50752D01*
X59900Y-50752D01*
X59900Y-50952D01*
X59513Y-50952D01*
X59449Y-51039D01*
X59506Y-51246D01*
X59638Y-51416D01*
X59817Y-51513D01*
X59900Y-51472D01*
X59900Y-52038D01*
X59748Y-52185D01*
X59691Y-52317D01*
X59732Y-52400D01*
X60400Y-52400D01*
X60400Y-52600D01*
X59732Y-52600D01*
X59691Y-52682D01*
X59748Y-52814D01*
X59904Y-52965D01*
X60105Y-53045D01*
X60400Y-53045D01*
X60400Y-53450D01*
X59700Y-53450D01*
X59700Y-54269D01*
X59685Y-54291D01*
X59643Y-54500D01*
X59685Y-54708D01*
X59700Y-54730D01*
X59700Y-57200D01*
X58104Y-57200D01*
X58104Y-56117D01*
X58104Y-55727D01*
X58050Y-55497D01*
X57911Y-55306D01*
X57690Y-55186D01*
X57600Y-55226D01*
X57600Y-55822D01*
X58038Y-55822D01*
X58104Y-55727D01*
X58104Y-56117D01*
X58038Y-56022D01*
X57600Y-56022D01*
X57600Y-56618D01*
X57690Y-56658D01*
X57911Y-56538D01*
X58050Y-56347D01*
X58104Y-56117D01*
X58104Y-57200D01*
X57400Y-57200D01*
X57400Y-56618D01*
X57400Y-56022D01*
X57400Y-55822D01*
X57400Y-55226D01*
X57309Y-55186D01*
X57088Y-55306D01*
X57081Y-55315D01*
X57081Y-51292D01*
X57051Y-51057D01*
X57019Y-50979D01*
X56925Y-50942D01*
X56783Y-51083D01*
X56783Y-50801D01*
X56747Y-50707D01*
X56518Y-50644D01*
X56284Y-50674D01*
X56205Y-50707D01*
X56168Y-50801D01*
X56476Y-51108D01*
X56783Y-50801D01*
X56783Y-51083D01*
X56617Y-51250D01*
X56925Y-51557D01*
X57019Y-51520D01*
X57081Y-51292D01*
X57081Y-55315D01*
X56949Y-55497D01*
X56895Y-55727D01*
X56961Y-55822D01*
X57400Y-55822D01*
X57400Y-56022D01*
X56961Y-56022D01*
X56895Y-56117D01*
X56949Y-56347D01*
X57088Y-56538D01*
X57309Y-56658D01*
X57400Y-56618D01*
X57400Y-57200D01*
X56783Y-57200D01*
X56783Y-51698D01*
X56476Y-51391D01*
X56334Y-51532D01*
X56334Y-51250D01*
X56027Y-50942D01*
X55933Y-50979D01*
X55871Y-51207D01*
X55883Y-51302D01*
X55817Y-51285D01*
X55603Y-51316D01*
X55547Y-51339D01*
X55516Y-51428D01*
X55787Y-51699D01*
X55956Y-51529D01*
X56027Y-51557D01*
X56334Y-51250D01*
X56334Y-51532D01*
X56272Y-51594D01*
X56199Y-51569D01*
X55928Y-51840D01*
X56199Y-52111D01*
X56288Y-52080D01*
X56342Y-51870D01*
X56336Y-51828D01*
X56433Y-51855D01*
X56668Y-51825D01*
X56747Y-51792D01*
X56783Y-51698D01*
X56783Y-57200D01*
X56058Y-57200D01*
X56058Y-52252D01*
X55787Y-51981D01*
X55645Y-52123D01*
X55645Y-51840D01*
X55375Y-51569D01*
X55286Y-51600D01*
X55270Y-51661D01*
X55270Y-51526D01*
X55240Y-51437D01*
X55030Y-51384D01*
X54815Y-51414D01*
X54759Y-51437D01*
X54729Y-51526D01*
X55000Y-51797D01*
X55270Y-51526D01*
X55270Y-51661D01*
X55232Y-51810D01*
X55237Y-51843D01*
X55141Y-51938D01*
X55412Y-52209D01*
X55500Y-52179D01*
X55554Y-51969D01*
X55550Y-51936D01*
X55645Y-51840D01*
X55645Y-52123D01*
X55516Y-52252D01*
X55547Y-52341D01*
X55757Y-52395D01*
X55971Y-52364D01*
X56027Y-52341D01*
X56058Y-52252D01*
X56058Y-57200D01*
X55270Y-57200D01*
X55270Y-52351D01*
X55000Y-52080D01*
X54858Y-52221D01*
X54858Y-51938D01*
X54587Y-51668D01*
X54499Y-51698D01*
X54445Y-51908D01*
X54475Y-52123D01*
X54499Y-52179D01*
X54587Y-52209D01*
X54858Y-51938D01*
X54858Y-52221D01*
X54729Y-52351D01*
X54759Y-52439D01*
X54969Y-52493D01*
X55184Y-52463D01*
X55240Y-52439D01*
X55270Y-52351D01*
X55270Y-57200D01*
X55050Y-57200D01*
X55050Y-53200D01*
X53300Y-53200D01*
X53300Y-51801D01*
X53404Y-51844D01*
X53641Y-51845D01*
X53860Y-51754D01*
X54027Y-51587D01*
X54118Y-51368D01*
X54118Y-51204D01*
X54320Y-51204D01*
X54520Y-51121D01*
X54655Y-50987D01*
X54690Y-51022D01*
X54891Y-51105D01*
X55107Y-51106D01*
X55308Y-51023D01*
X55461Y-50870D01*
X55544Y-50669D01*
X55545Y-50453D01*
X55462Y-50252D01*
X55309Y-50099D01*
X55108Y-50016D01*
X54892Y-50015D01*
X54691Y-50098D01*
X54557Y-50233D01*
X54521Y-50197D01*
X54321Y-50114D01*
X54104Y-50114D01*
X53904Y-50197D01*
X53750Y-50350D01*
X53667Y-50550D01*
X53667Y-50665D01*
X53642Y-50655D01*
X53405Y-50654D01*
X53300Y-50698D01*
X53300Y-48050D01*
X61800Y-48050D01*
X61800Y-47270D01*
X62020Y-47050D01*
X66761Y-47050D01*
X66768Y-47056D01*
X66823Y-47079D01*
X66811Y-47088D01*
X66691Y-47309D01*
X66731Y-47400D01*
X67327Y-47400D01*
X67327Y-47392D01*
X67527Y-47392D01*
X67527Y-47400D01*
X68123Y-47400D01*
X68163Y-47309D01*
X68043Y-47088D01*
X68031Y-47079D01*
X68086Y-47057D01*
X68093Y-47050D01*
X68200Y-47050D01*
X68200Y-47950D01*
X68200Y-47950D01*
G37*
G54D35*
X68200Y-47950D02*
X67991Y-47950D01*
X68043Y-47911D01*
X68163Y-47690D01*
X68123Y-47600D01*
X67527Y-47600D01*
X67527Y-47607D01*
X67327Y-47607D01*
X67327Y-47600D01*
X66731Y-47600D01*
X66691Y-47690D01*
X66811Y-47911D01*
X66863Y-47950D01*
X64483Y-47950D01*
X61450Y-50225D01*
X61450Y-50402D01*
X61361Y-50288D01*
X61182Y-50191D01*
X61100Y-50232D01*
X61100Y-50752D01*
X61107Y-50752D01*
X61107Y-50952D01*
X61100Y-50952D01*
X61100Y-51472D01*
X61182Y-51513D01*
X61361Y-51416D01*
X61450Y-51302D01*
X61450Y-53450D01*
X61308Y-53450D01*
X61308Y-52682D01*
X61308Y-52317D01*
X61251Y-52185D01*
X61095Y-52034D01*
X60900Y-51956D01*
X60900Y-51472D01*
X60900Y-50952D01*
X60900Y-50752D01*
X60900Y-50232D01*
X60817Y-50191D01*
X60638Y-50288D01*
X60506Y-50458D01*
X60500Y-50483D01*
X60493Y-50458D01*
X60361Y-50288D01*
X60182Y-50191D01*
X60100Y-50232D01*
X60100Y-50752D01*
X60486Y-50752D01*
X60500Y-50734D01*
X60513Y-50752D01*
X60900Y-50752D01*
X60900Y-50952D01*
X60513Y-50952D01*
X60500Y-50970D01*
X60486Y-50952D01*
X60100Y-50952D01*
X60100Y-51472D01*
X60182Y-51513D01*
X60361Y-51416D01*
X60493Y-51246D01*
X60500Y-51221D01*
X60506Y-51246D01*
X60638Y-51416D01*
X60817Y-51513D01*
X60900Y-51472D01*
X60900Y-51956D01*
X60895Y-51955D01*
X60600Y-51955D01*
X60600Y-52400D01*
X61267Y-52400D01*
X61308Y-52317D01*
X61308Y-52682D01*
X61267Y-52600D01*
X60600Y-52600D01*
X60600Y-53045D01*
X60895Y-53045D01*
X61095Y-52965D01*
X61251Y-52814D01*
X61308Y-52682D01*
X61308Y-53450D01*
X60400Y-53450D01*
X60400Y-53045D01*
X60400Y-52600D01*
X60400Y-52400D01*
X60400Y-51955D01*
X60105Y-51955D01*
X59904Y-52034D01*
X59900Y-52038D01*
X59900Y-51472D01*
X59900Y-50952D01*
X59900Y-50752D01*
X59900Y-50232D01*
X59817Y-50191D01*
X59638Y-50288D01*
X59506Y-50458D01*
X59449Y-50665D01*
X59513Y-50752D01*
X59900Y-50752D01*
X59900Y-50952D01*
X59513Y-50952D01*
X59449Y-51039D01*
X59506Y-51246D01*
X59638Y-51416D01*
X59817Y-51513D01*
X59900Y-51472D01*
X59900Y-52038D01*
X59748Y-52185D01*
X59691Y-52317D01*
X59732Y-52400D01*
X60400Y-52400D01*
X60400Y-52600D01*
X59732Y-52600D01*
X59691Y-52682D01*
X59748Y-52814D01*
X59904Y-52965D01*
X60105Y-53045D01*
X60400Y-53045D01*
X60400Y-53450D01*
X59700Y-53450D01*
X59700Y-54269D01*
X59685Y-54291D01*
X59643Y-54500D01*
X59685Y-54708D01*
X59700Y-54730D01*
X59700Y-57200D01*
X58104Y-57200D01*
X58104Y-56117D01*
X58104Y-55727D01*
X58050Y-55497D01*
X57911Y-55306D01*
X57690Y-55186D01*
X57600Y-55226D01*
X57600Y-55822D01*
X58038Y-55822D01*
X58104Y-55727D01*
X58104Y-56117D01*
X58038Y-56022D01*
X57600Y-56022D01*
X57600Y-56618D01*
X57690Y-56658D01*
X57911Y-56538D01*
X58050Y-56347D01*
X58104Y-56117D01*
X58104Y-57200D01*
X57400Y-57200D01*
X57400Y-56618D01*
X57400Y-56022D01*
X57400Y-55822D01*
X57400Y-55226D01*
X57309Y-55186D01*
X57088Y-55306D01*
X57081Y-55315D01*
X57081Y-51292D01*
X57051Y-51057D01*
X57019Y-50979D01*
X56925Y-50942D01*
X56783Y-51083D01*
X56783Y-50801D01*
X56747Y-50707D01*
X56518Y-50644D01*
X56284Y-50674D01*
X56205Y-50707D01*
X56168Y-50801D01*
X56476Y-51108D01*
X56783Y-50801D01*
X56783Y-51083D01*
X56617Y-51250D01*
X56925Y-51557D01*
X57019Y-51520D01*
X57081Y-51292D01*
X57081Y-55315D01*
X56949Y-55497D01*
X56895Y-55727D01*
X56961Y-55822D01*
X57400Y-55822D01*
X57400Y-56022D01*
X56961Y-56022D01*
X56895Y-56117D01*
X56949Y-56347D01*
X57088Y-56538D01*
X57309Y-56658D01*
X57400Y-56618D01*
X57400Y-57200D01*
X56783Y-57200D01*
X56783Y-51698D01*
X56476Y-51391D01*
X56334Y-51532D01*
X56334Y-51250D01*
X56027Y-50942D01*
X55933Y-50979D01*
X55871Y-51207D01*
X55883Y-51302D01*
X55817Y-51285D01*
X55603Y-51316D01*
X55547Y-51339D01*
X55516Y-51428D01*
X55787Y-51699D01*
X55956Y-51529D01*
X56027Y-51557D01*
X56334Y-51250D01*
X56334Y-51532D01*
X56272Y-51594D01*
X56199Y-51569D01*
X55928Y-51840D01*
X56199Y-52111D01*
X56288Y-52080D01*
X56342Y-51870D01*
X56336Y-51828D01*
X56433Y-51855D01*
X56668Y-51825D01*
X56747Y-51792D01*
X56783Y-51698D01*
X56783Y-57200D01*
X56058Y-57200D01*
X56058Y-52252D01*
X55787Y-51981D01*
X55645Y-52123D01*
X55645Y-51840D01*
X55375Y-51569D01*
X55286Y-51600D01*
X55270Y-51661D01*
X55270Y-51526D01*
X55240Y-51437D01*
X55030Y-51384D01*
X54815Y-51414D01*
X54759Y-51437D01*
X54729Y-51526D01*
X55000Y-51797D01*
X55270Y-51526D01*
X55270Y-51661D01*
X55232Y-51810D01*
X55237Y-51843D01*
X55141Y-51938D01*
X55412Y-52209D01*
X55500Y-52179D01*
X55554Y-51969D01*
X55550Y-51936D01*
X55645Y-51840D01*
X55645Y-52123D01*
X55516Y-52252D01*
X55547Y-52341D01*
X55757Y-52395D01*
X55971Y-52364D01*
X56027Y-52341D01*
X56058Y-52252D01*
X56058Y-57200D01*
X55270Y-57200D01*
X55270Y-52351D01*
X55000Y-52080D01*
X54858Y-52221D01*
X54858Y-51938D01*
X54587Y-51668D01*
X54499Y-51698D01*
X54445Y-51908D01*
X54475Y-52123D01*
X54499Y-52179D01*
X54587Y-52209D01*
X54858Y-51938D01*
X54858Y-52221D01*
X54729Y-52351D01*
X54759Y-52439D01*
X54969Y-52493D01*
X55184Y-52463D01*
X55240Y-52439D01*
X55270Y-52351D01*
X55270Y-57200D01*
X55050Y-57200D01*
X55050Y-53200D01*
X53300Y-53200D01*
X53300Y-51801D01*
X53404Y-51844D01*
X53641Y-51845D01*
X53860Y-51754D01*
X54027Y-51587D01*
X54118Y-51368D01*
X54118Y-51204D01*
X54320Y-51204D01*
X54520Y-51121D01*
X54655Y-50987D01*
X54690Y-51022D01*
X54891Y-51105D01*
X55107Y-51106D01*
X55308Y-51023D01*
X55461Y-50870D01*
X55544Y-50669D01*
X55545Y-50453D01*
X55462Y-50252D01*
X55309Y-50099D01*
X55108Y-50016D01*
X54892Y-50015D01*
X54691Y-50098D01*
X54557Y-50233D01*
X54521Y-50197D01*
X54321Y-50114D01*
X54104Y-50114D01*
X53904Y-50197D01*
X53750Y-50350D01*
X53667Y-50550D01*
X53667Y-50665D01*
X53642Y-50655D01*
X53405Y-50654D01*
X53300Y-50698D01*
X53300Y-48050D01*
X61800Y-48050D01*
X61800Y-47270D01*
X62020Y-47050D01*
X66761Y-47050D01*
X66768Y-47056D01*
X66823Y-47079D01*
X66811Y-47088D01*
X66691Y-47309D01*
X66731Y-47400D01*
X67327Y-47400D01*
X67327Y-47392D01*
X67527Y-47392D01*
X67527Y-47400D01*
X68123Y-47400D01*
X68163Y-47309D01*
X68043Y-47088D01*
X68031Y-47079D01*
X68086Y-47057D01*
X68093Y-47050D01*
X68200Y-47050D01*
X68200Y-47950D01*
G54D10*
G36*
X63950Y-59879D02*
X63809Y-59738D01*
X63608Y-59655D01*
X63392Y-59654D01*
X63355Y-59670D01*
X63355Y-57292D01*
X63325Y-57057D01*
X63292Y-56979D01*
X63198Y-56942D01*
X63057Y-57083D01*
X63057Y-56801D01*
X63020Y-56707D01*
X62792Y-56644D01*
X62557Y-56674D01*
X62479Y-56707D01*
X62442Y-56801D01*
X62750Y-57108D01*
X63057Y-56801D01*
X63057Y-57083D01*
X62891Y-57250D01*
X63198Y-57557D01*
X63292Y-57520D01*
X63355Y-57292D01*
X63355Y-59670D01*
X63191Y-59737D01*
X63057Y-59871D01*
X63057Y-57698D01*
X62750Y-57391D01*
X62608Y-57532D01*
X62608Y-57250D01*
X62301Y-56942D01*
X62207Y-56979D01*
X62144Y-57207D01*
X62174Y-57442D01*
X62207Y-57520D01*
X62301Y-57557D01*
X62608Y-57250D01*
X62608Y-57532D01*
X62442Y-57698D01*
X62479Y-57792D01*
X62707Y-57855D01*
X62942Y-57825D01*
X63020Y-57792D01*
X63057Y-57698D01*
X63057Y-59871D01*
X63038Y-59890D01*
X62955Y-60091D01*
X62954Y-60273D01*
X62954Y-60273D01*
X62926Y-60316D01*
X62900Y-60450D01*
X62900Y-61250D01*
X62926Y-61383D01*
X63002Y-61497D01*
X63102Y-61597D01*
X63216Y-61673D01*
X63350Y-61700D01*
X62950Y-61700D01*
X62950Y-61981D01*
X62834Y-61949D01*
X62747Y-62013D01*
X62747Y-62400D01*
X62755Y-62400D01*
X62755Y-62600D01*
X62747Y-62600D01*
X62747Y-62986D01*
X62765Y-63000D01*
X62747Y-63013D01*
X62747Y-63400D01*
X62755Y-63400D01*
X62755Y-63600D01*
X62747Y-63600D01*
X62747Y-63986D01*
X62765Y-64000D01*
X62747Y-64013D01*
X62747Y-64400D01*
X62755Y-64400D01*
X62755Y-64600D01*
X62747Y-64600D01*
X62747Y-64986D01*
X62765Y-65000D01*
X62747Y-65013D01*
X62747Y-65400D01*
X62755Y-65400D01*
X62755Y-65600D01*
X62747Y-65600D01*
X62747Y-65986D01*
X62765Y-66000D01*
X62747Y-66013D01*
X62747Y-66400D01*
X62755Y-66400D01*
X62755Y-66600D01*
X62747Y-66600D01*
X62747Y-66986D01*
X62765Y-67000D01*
X62747Y-67013D01*
X62747Y-67400D01*
X62755Y-67400D01*
X62755Y-67600D01*
X62747Y-67600D01*
X62747Y-67986D01*
X62765Y-68000D01*
X62747Y-68013D01*
X62747Y-68400D01*
X62755Y-68400D01*
X62755Y-68600D01*
X62747Y-68600D01*
X62747Y-68986D01*
X62765Y-69000D01*
X62747Y-69013D01*
X62747Y-69400D01*
X62755Y-69400D01*
X62755Y-69600D01*
X62747Y-69600D01*
X62747Y-69986D01*
X62765Y-70000D01*
X62747Y-70013D01*
X62747Y-70400D01*
X62755Y-70400D01*
X62755Y-70600D01*
X62747Y-70600D01*
X62747Y-70986D01*
X62765Y-71000D01*
X62747Y-71013D01*
X62747Y-71400D01*
X62755Y-71400D01*
X62755Y-71600D01*
X62747Y-71600D01*
X62747Y-71607D01*
X62547Y-71607D01*
X62547Y-71600D01*
X62547Y-71400D01*
X62547Y-71013D01*
X62529Y-71000D01*
X62547Y-70986D01*
X62547Y-70600D01*
X62547Y-70400D01*
X62547Y-70013D01*
X62529Y-70000D01*
X62547Y-69986D01*
X62547Y-69600D01*
X62547Y-69400D01*
X62547Y-69013D01*
X62529Y-69000D01*
X62547Y-68986D01*
X62547Y-68600D01*
X62547Y-68400D01*
X62547Y-68013D01*
X62529Y-68000D01*
X62547Y-67986D01*
X62547Y-67600D01*
X62547Y-67400D01*
X62547Y-67013D01*
X62529Y-67000D01*
X62547Y-66986D01*
X62547Y-66600D01*
X62547Y-66400D01*
X62547Y-66013D01*
X62529Y-66000D01*
X62547Y-65986D01*
X62547Y-65600D01*
X62547Y-65400D01*
X62547Y-65013D01*
X62529Y-65000D01*
X62547Y-64986D01*
X62547Y-64600D01*
X62547Y-64400D01*
X62547Y-64013D01*
X62529Y-64000D01*
X62547Y-63986D01*
X62547Y-63600D01*
X62547Y-63400D01*
X62547Y-63013D01*
X62529Y-63000D01*
X62547Y-62986D01*
X62547Y-62600D01*
X62547Y-62400D01*
X62547Y-62013D01*
X62460Y-61949D01*
X62253Y-62006D01*
X62083Y-62138D01*
X61986Y-62317D01*
X62027Y-62400D01*
X62547Y-62400D01*
X62547Y-62600D01*
X62027Y-62600D01*
X61986Y-62682D01*
X62083Y-62861D01*
X62253Y-62993D01*
X62278Y-63000D01*
X62253Y-63006D01*
X62083Y-63138D01*
X61986Y-63317D01*
X62027Y-63400D01*
X62547Y-63400D01*
X62547Y-63600D01*
X62027Y-63600D01*
X61986Y-63682D01*
X62083Y-63861D01*
X62253Y-63993D01*
X62278Y-64000D01*
X62253Y-64006D01*
X62083Y-64138D01*
X61986Y-64317D01*
X62027Y-64400D01*
X62547Y-64400D01*
X62547Y-64600D01*
X62027Y-64600D01*
X61986Y-64682D01*
X62083Y-64861D01*
X62253Y-64993D01*
X62278Y-65000D01*
X62253Y-65006D01*
X62083Y-65138D01*
X61986Y-65317D01*
X62027Y-65400D01*
X62547Y-65400D01*
X62547Y-65600D01*
X62027Y-65600D01*
X61986Y-65682D01*
X62083Y-65861D01*
X62253Y-65993D01*
X62278Y-66000D01*
X62253Y-66006D01*
X62083Y-66138D01*
X61986Y-66317D01*
X62027Y-66400D01*
X62547Y-66400D01*
X62547Y-66600D01*
X62027Y-66600D01*
X61986Y-66682D01*
X62083Y-66861D01*
X62253Y-66993D01*
X62278Y-67000D01*
X62253Y-67006D01*
X62083Y-67138D01*
X61986Y-67317D01*
X62027Y-67400D01*
X62547Y-67400D01*
X62547Y-67600D01*
X62027Y-67600D01*
X61986Y-67682D01*
X62083Y-67861D01*
X62253Y-67993D01*
X62278Y-68000D01*
X62253Y-68006D01*
X62083Y-68138D01*
X61986Y-68317D01*
X62027Y-68400D01*
X62547Y-68400D01*
X62547Y-68600D01*
X62027Y-68600D01*
X61986Y-68682D01*
X62083Y-68861D01*
X62253Y-68993D01*
X62278Y-69000D01*
X62253Y-69006D01*
X62083Y-69138D01*
X61986Y-69317D01*
X62027Y-69400D01*
X62547Y-69400D01*
X62547Y-69600D01*
X62027Y-69600D01*
X61986Y-69682D01*
X62083Y-69861D01*
X62253Y-69993D01*
X62278Y-70000D01*
X62253Y-70006D01*
X62083Y-70138D01*
X61986Y-70317D01*
X62027Y-70400D01*
X62547Y-70400D01*
X62547Y-70600D01*
X62027Y-70600D01*
X61986Y-70682D01*
X62083Y-70861D01*
X62253Y-70993D01*
X62278Y-71000D01*
X62253Y-71006D01*
X62083Y-71138D01*
X61986Y-71317D01*
X62027Y-71400D01*
X62547Y-71400D01*
X62547Y-71600D01*
X62027Y-71600D01*
X61986Y-71682D01*
X62083Y-71861D01*
X62253Y-71993D01*
X62274Y-71998D01*
X62101Y-72114D01*
X62044Y-72200D01*
X60020Y-72200D01*
X59550Y-71729D01*
X59550Y-57550D01*
X60050Y-57550D01*
X60050Y-55300D01*
X63950Y-55300D01*
X63950Y-55331D01*
X63926Y-55366D01*
X63900Y-55500D01*
X63900Y-55882D01*
X63864Y-55906D01*
X63746Y-56082D01*
X63705Y-56291D01*
X63705Y-56613D01*
X63746Y-56822D01*
X63864Y-56998D01*
X63900Y-57022D01*
X63900Y-57782D01*
X63864Y-57806D01*
X63746Y-57982D01*
X63705Y-58191D01*
X63705Y-58513D01*
X63746Y-58722D01*
X63864Y-58898D01*
X63950Y-58955D01*
X63950Y-59879D01*
X63950Y-59879D01*
G37*
G54D35*
X63950Y-59879D02*
X63809Y-59738D01*
X63608Y-59655D01*
X63392Y-59654D01*
X63355Y-59670D01*
X63355Y-57292D01*
X63325Y-57057D01*
X63292Y-56979D01*
X63198Y-56942D01*
X63057Y-57083D01*
X63057Y-56801D01*
X63020Y-56707D01*
X62792Y-56644D01*
X62557Y-56674D01*
X62479Y-56707D01*
X62442Y-56801D01*
X62750Y-57108D01*
X63057Y-56801D01*
X63057Y-57083D01*
X62891Y-57250D01*
X63198Y-57557D01*
X63292Y-57520D01*
X63355Y-57292D01*
X63355Y-59670D01*
X63191Y-59737D01*
X63057Y-59871D01*
X63057Y-57698D01*
X62750Y-57391D01*
X62608Y-57532D01*
X62608Y-57250D01*
X62301Y-56942D01*
X62207Y-56979D01*
X62144Y-57207D01*
X62174Y-57442D01*
X62207Y-57520D01*
X62301Y-57557D01*
X62608Y-57250D01*
X62608Y-57532D01*
X62442Y-57698D01*
X62479Y-57792D01*
X62707Y-57855D01*
X62942Y-57825D01*
X63020Y-57792D01*
X63057Y-57698D01*
X63057Y-59871D01*
X63038Y-59890D01*
X62955Y-60091D01*
X62954Y-60273D01*
X62954Y-60273D01*
X62926Y-60316D01*
X62900Y-60450D01*
X62900Y-61250D01*
X62926Y-61383D01*
X63002Y-61497D01*
X63102Y-61597D01*
X63216Y-61673D01*
X63350Y-61700D01*
X62950Y-61700D01*
X62950Y-61981D01*
X62834Y-61949D01*
X62747Y-62013D01*
X62747Y-62400D01*
X62755Y-62400D01*
X62755Y-62600D01*
X62747Y-62600D01*
X62747Y-62986D01*
X62765Y-63000D01*
X62747Y-63013D01*
X62747Y-63400D01*
X62755Y-63400D01*
X62755Y-63600D01*
X62747Y-63600D01*
X62747Y-63986D01*
X62765Y-64000D01*
X62747Y-64013D01*
X62747Y-64400D01*
X62755Y-64400D01*
X62755Y-64600D01*
X62747Y-64600D01*
X62747Y-64986D01*
X62765Y-65000D01*
X62747Y-65013D01*
X62747Y-65400D01*
X62755Y-65400D01*
X62755Y-65600D01*
X62747Y-65600D01*
X62747Y-65986D01*
X62765Y-66000D01*
X62747Y-66013D01*
X62747Y-66400D01*
X62755Y-66400D01*
X62755Y-66600D01*
X62747Y-66600D01*
X62747Y-66986D01*
X62765Y-67000D01*
X62747Y-67013D01*
X62747Y-67400D01*
X62755Y-67400D01*
X62755Y-67600D01*
X62747Y-67600D01*
X62747Y-67986D01*
X62765Y-68000D01*
X62747Y-68013D01*
X62747Y-68400D01*
X62755Y-68400D01*
X62755Y-68600D01*
X62747Y-68600D01*
X62747Y-68986D01*
X62765Y-69000D01*
X62747Y-69013D01*
X62747Y-69400D01*
X62755Y-69400D01*
X62755Y-69600D01*
X62747Y-69600D01*
X62747Y-69986D01*
X62765Y-70000D01*
X62747Y-70013D01*
X62747Y-70400D01*
X62755Y-70400D01*
X62755Y-70600D01*
X62747Y-70600D01*
X62747Y-70986D01*
X62765Y-71000D01*
X62747Y-71013D01*
X62747Y-71400D01*
X62755Y-71400D01*
X62755Y-71600D01*
X62747Y-71600D01*
X62747Y-71607D01*
X62547Y-71607D01*
X62547Y-71600D01*
X62547Y-71400D01*
X62547Y-71013D01*
X62529Y-71000D01*
X62547Y-70986D01*
X62547Y-70600D01*
X62547Y-70400D01*
X62547Y-70013D01*
X62529Y-70000D01*
X62547Y-69986D01*
X62547Y-69600D01*
X62547Y-69400D01*
X62547Y-69013D01*
X62529Y-69000D01*
X62547Y-68986D01*
X62547Y-68600D01*
X62547Y-68400D01*
X62547Y-68013D01*
X62529Y-68000D01*
X62547Y-67986D01*
X62547Y-67600D01*
X62547Y-67400D01*
X62547Y-67013D01*
X62529Y-67000D01*
X62547Y-66986D01*
X62547Y-66600D01*
X62547Y-66400D01*
X62547Y-66013D01*
X62529Y-66000D01*
X62547Y-65986D01*
X62547Y-65600D01*
X62547Y-65400D01*
X62547Y-65013D01*
X62529Y-65000D01*
X62547Y-64986D01*
X62547Y-64600D01*
X62547Y-64400D01*
X62547Y-64013D01*
X62529Y-64000D01*
X62547Y-63986D01*
X62547Y-63600D01*
X62547Y-63400D01*
X62547Y-63013D01*
X62529Y-63000D01*
X62547Y-62986D01*
X62547Y-62600D01*
X62547Y-62400D01*
X62547Y-62013D01*
X62460Y-61949D01*
X62253Y-62006D01*
X62083Y-62138D01*
X61986Y-62317D01*
X62027Y-62400D01*
X62547Y-62400D01*
X62547Y-62600D01*
X62027Y-62600D01*
X61986Y-62682D01*
X62083Y-62861D01*
X62253Y-62993D01*
X62278Y-63000D01*
X62253Y-63006D01*
X62083Y-63138D01*
X61986Y-63317D01*
X62027Y-63400D01*
X62547Y-63400D01*
X62547Y-63600D01*
X62027Y-63600D01*
X61986Y-63682D01*
X62083Y-63861D01*
X62253Y-63993D01*
X62278Y-64000D01*
X62253Y-64006D01*
X62083Y-64138D01*
X61986Y-64317D01*
X62027Y-64400D01*
X62547Y-64400D01*
X62547Y-64600D01*
X62027Y-64600D01*
X61986Y-64682D01*
X62083Y-64861D01*
X62253Y-64993D01*
X62278Y-65000D01*
X62253Y-65006D01*
X62083Y-65138D01*
X61986Y-65317D01*
X62027Y-65400D01*
X62547Y-65400D01*
X62547Y-65600D01*
X62027Y-65600D01*
X61986Y-65682D01*
X62083Y-65861D01*
X62253Y-65993D01*
X62278Y-66000D01*
X62253Y-66006D01*
X62083Y-66138D01*
X61986Y-66317D01*
X62027Y-66400D01*
X62547Y-66400D01*
X62547Y-66600D01*
X62027Y-66600D01*
X61986Y-66682D01*
X62083Y-66861D01*
X62253Y-66993D01*
X62278Y-67000D01*
X62253Y-67006D01*
X62083Y-67138D01*
X61986Y-67317D01*
X62027Y-67400D01*
X62547Y-67400D01*
X62547Y-67600D01*
X62027Y-67600D01*
X61986Y-67682D01*
X62083Y-67861D01*
X62253Y-67993D01*
X62278Y-68000D01*
X62253Y-68006D01*
X62083Y-68138D01*
X61986Y-68317D01*
X62027Y-68400D01*
X62547Y-68400D01*
X62547Y-68600D01*
X62027Y-68600D01*
X61986Y-68682D01*
X62083Y-68861D01*
X62253Y-68993D01*
X62278Y-69000D01*
X62253Y-69006D01*
X62083Y-69138D01*
X61986Y-69317D01*
X62027Y-69400D01*
X62547Y-69400D01*
X62547Y-69600D01*
X62027Y-69600D01*
X61986Y-69682D01*
X62083Y-69861D01*
X62253Y-69993D01*
X62278Y-70000D01*
X62253Y-70006D01*
X62083Y-70138D01*
X61986Y-70317D01*
X62027Y-70400D01*
X62547Y-70400D01*
X62547Y-70600D01*
X62027Y-70600D01*
X61986Y-70682D01*
X62083Y-70861D01*
X62253Y-70993D01*
X62278Y-71000D01*
X62253Y-71006D01*
X62083Y-71138D01*
X61986Y-71317D01*
X62027Y-71400D01*
X62547Y-71400D01*
X62547Y-71600D01*
X62027Y-71600D01*
X61986Y-71682D01*
X62083Y-71861D01*
X62253Y-71993D01*
X62274Y-71998D01*
X62101Y-72114D01*
X62044Y-72200D01*
X60020Y-72200D01*
X59550Y-71729D01*
X59550Y-57550D01*
X60050Y-57550D01*
X60050Y-55300D01*
X63950Y-55300D01*
X63950Y-55331D01*
X63926Y-55366D01*
X63900Y-55500D01*
X63900Y-55882D01*
X63864Y-55906D01*
X63746Y-56082D01*
X63705Y-56291D01*
X63705Y-56613D01*
X63746Y-56822D01*
X63864Y-56998D01*
X63900Y-57022D01*
X63900Y-57782D01*
X63864Y-57806D01*
X63746Y-57982D01*
X63705Y-58191D01*
X63705Y-58513D01*
X63746Y-58722D01*
X63864Y-58898D01*
X63950Y-58955D01*
X63950Y-59879D01*
M02*
