M48
;DRILL file {Pcbnew (2013-07-07 BZR 4022)-stable} date 7/6/2014 5:52:32 PM
;FORMAT={-:-/ absolute / inch / decimal}
FMAT,2
INCH,TZ
T1C0.025
T2C0.032
T3C0.040
T4C0.079
T5C0.098
T6C0.105
T7C0.108
T8C0.240
%
G90
G05
M72
T1
X6.575Y-6.075
X6.745Y-5.83
X6.745Y-5.875
X6.805Y-6.27
X6.815Y-6.065
X6.85Y-6.02
X6.85Y-6.25
X6.875Y-6.3
X6.885Y-6.09
X7.135Y-6.3
X7.3Y-6.05
X7.425Y-6.05
X7.775Y-6.45
X7.875Y-6.45
X8.Y-5.675
T2
X5.Y-5.625
X5.Y-6.025
X5.Y-6.1
X5.Y-6.5
X5.05Y-6.625
X5.05Y-6.825
X5.1Y-5.625
X5.1Y-6.025
X5.1Y-6.1
X5.1Y-6.5
X5.2Y-5.625
X5.2Y-6.025
X5.2Y-6.1
X5.2Y-6.5
X5.3Y-5.625
X5.3Y-6.025
X5.3Y-6.1
X5.3Y-6.5
X5.4213Y-5.0659
X5.5Y-5.0561
X5.5Y-5.1939
X5.5787Y-5.1841
X5.6463Y-6.2659
X5.725Y-6.2561
X5.725Y-6.3939
X5.8037Y-6.3841
X6.Y-4.7
X6.Y-5.1
X6.05Y-5.25
X6.05Y-5.45
X6.1Y-4.7
X6.1Y-5.1
X6.2Y-4.55
X6.2Y-4.65
X6.25Y-6.25
X6.25Y-6.35
X6.25Y-6.45
X6.25Y-6.55
X6.25Y-6.65
X6.25Y-6.75
X6.25Y-6.85
X6.25Y-6.95
X6.25Y-7.05
X6.25Y-7.15
X6.25Y-7.25
X6.25Y-7.35
X6.35Y-6.02
X6.425Y-5.66
X6.425Y-5.85
X6.475Y-5.71
X6.475Y-5.9
X6.525Y-5.66
X6.525Y-5.85
X6.55Y-6.02
X6.6Y-4.55
X6.6Y-4.65
X6.625Y-5.775
X6.625Y-5.875
X6.65Y-6.25
X6.65Y-6.35
X6.65Y-6.45
X6.65Y-6.55
X6.65Y-6.65
X6.65Y-6.75
X6.65Y-6.85
X6.65Y-6.95
X6.65Y-7.05
X6.65Y-7.15
X6.65Y-7.25
X6.65Y-7.35
X6.825Y-7.375
X6.825Y-7.775
X6.875Y-6.875
X6.875Y-6.975
X6.875Y-7.15
X6.875Y-7.25
X6.8793Y-5.5343
X6.925Y-6.925
X6.925Y-7.2
X6.925Y-7.375
X6.925Y-7.775
X7.0207Y-5.6757
X7.025Y-5.775
X7.025Y-5.875
X7.025Y-6.075
X7.025Y-6.175
X7.025Y-6.275
X7.025Y-6.375
X7.025Y-6.475
X7.125Y-5.675
X7.125Y-5.975
X7.225Y-5.675
X7.225Y-5.975
X7.225Y-6.075
X7.325Y-5.675
X7.325Y-5.975
X7.425Y-5.675
X7.425Y-5.975
X7.425Y-6.175
X7.425Y-6.275
X7.425Y-6.375
X7.425Y-6.475
X7.5Y-4.
X7.5Y-4.4
X7.55Y-4.65
X7.55Y-4.85
X7.55Y-5.475
X7.55Y-5.675
X7.6Y-5.25
X7.675Y-4.
X7.675Y-4.2
X7.7561Y-4.65
X7.825Y-4.6008
X7.825Y-4.6992
X7.825Y-5.
X7.825Y-5.1
X7.8811Y-4.1
X7.8939Y-4.65
X7.9422Y-4.4328
X7.95Y-4.0508
X7.95Y-4.1492
X8.Y-5.25
X8.0189Y-4.1
X8.125Y-5.275
X8.125Y-5.675
X8.15Y-7.45
X8.225Y-4.15
X8.225Y-5.275
X8.225Y-5.675
X8.25Y-7.45
X8.325Y-5.6
X8.35Y-6.45
X8.35Y-7.45
X8.425Y-5.2
X8.475Y-5.45
X8.525Y-5.2
X8.525Y-5.4
X8.525Y-5.7
X8.55Y-6.45
X8.575Y-5.45
X8.625Y-5.2
X8.725Y-5.6
X8.725Y-5.7
X8.7602Y-6.9362
X8.7602Y-7.0543
X8.775Y-5.
X8.775Y-5.4
X8.775Y-7.175
X8.775Y-7.375
T3
X5.025Y-4.9
X5.025Y-5.5
X5.3524Y-5.125
X5.45Y-6.925
X5.5774Y-6.325
X5.6476Y-5.125
X5.65Y-6.825
X5.75Y-5.575
X5.75Y-5.875
X5.85Y-6.925
X5.8726Y-6.325
X6.275Y-5.125
X6.275Y-5.725
X6.76Y-4.65
X6.76Y-4.75
X6.76Y-4.85
X7.04Y-4.65
X7.04Y-4.75
X7.04Y-4.85
X7.075Y-4.5
X7.075Y-5.
X7.625Y-7.575
X7.625Y-7.675
X7.675Y-4.5
X7.675Y-5.
X7.875Y-7.575
X7.875Y-7.675
X7.93Y-4.8621
X8.0007Y-5.0743
X8.05Y-6.45
X8.15Y-6.45
X8.2129Y-5.145
X8.25Y-6.45
T4
X7.6972Y-7.4087
X8.6028Y-7.4087
T5
X5.1Y-4.363
X5.1Y-4.55
X5.1Y-4.737
X7.275Y-6.638
X7.275Y-6.825
X7.275Y-7.012
T6
X6.9Y-4.25
X6.9Y-5.25
T7
X5.34Y-4.33
X5.525Y-4.215
X5.525Y-4.45
X5.865Y-4.33
X6.05Y-4.215
X6.05Y-4.45
T8
X6.5Y-7.625
X7.25Y-7.625
T0
M30
