G04 (created by PCBNEW (2013-07-07 BZR 4022)-stable) date 7/6/2014 5:52:28 PM*
%MOIN*%
G04 Gerber Fmt 3.4, Leading zero omitted, Abs format*
%FSLAX34Y34*%
G01*
G70*
G90*
G04 APERTURE LIST*
%ADD10C,0.00590551*%
%ADD11C,0.069*%
%ADD12O,0.069X0.1035*%
%ADD13R,0.069X0.1035*%
%ADD14O,0.059X0.0885*%
%ADD15R,0.1035X0.069*%
%ADD16O,0.1035X0.069*%
%ADD17C,0.059*%
%ADD18O,0.0885X0.059*%
%ADD19R,0.137795X0.137795*%
%ADD20C,0.137795*%
%ADD21C,0.125984*%
%ADD22C,0.11811*%
%ADD23R,0.059X0.059*%
%ADD24O,0.059X0.059*%
%ADD25C,0.059*%
%ADD26R,0.16X0.16*%
%ADD27C,0.16*%
%ADD28R,0.059X0.0885*%
%ADD29C,0.36*%
%ADD30O,0.118X0.059*%
%ADD31C,0.069*%
%ADD32R,0.05X0.02*%
%ADD33R,0.069X0.069*%
%ADD34O,0.069X0.069*%
%ADD35C,0.2*%
G04 APERTURE END LIST*
G54D10*
G54D11*
X79763Y-50986D02*
X80007Y-50742D01*
G54D10*
G36*
X79056Y-49353D02*
X78568Y-48865D01*
X79300Y-48133D01*
X79788Y-48621D01*
X79056Y-49353D01*
X79056Y-49353D01*
G37*
G54D11*
X81884Y-51693D02*
X82128Y-51449D01*
G54D12*
X56500Y-68077D03*
G54D13*
X58500Y-69077D03*
G54D12*
X54500Y-69077D03*
G54D14*
X65250Y-56452D03*
X64750Y-57247D03*
X64250Y-56452D03*
X65250Y-58352D03*
X64750Y-59147D03*
X64250Y-58352D03*
G54D15*
X67427Y-46500D03*
G54D16*
X67427Y-47500D03*
X67427Y-48500D03*
G54D15*
X70572Y-48500D03*
G54D16*
X70572Y-47500D03*
X70572Y-46500D03*
G54D17*
X82250Y-41500D02*
X82041Y-41708D01*
X79630Y-44119D02*
X79421Y-44328D01*
G54D18*
X62647Y-71500D03*
X66352Y-71500D03*
X62647Y-70500D03*
X66352Y-70500D03*
X62647Y-65500D03*
X66352Y-65500D03*
X62647Y-66500D03*
X66352Y-66500D03*
X62647Y-69500D03*
X66352Y-69500D03*
X62647Y-68500D03*
X66352Y-68500D03*
X62647Y-67500D03*
X66352Y-67500D03*
G54D14*
X75000Y-43852D03*
X75000Y-40147D03*
X51000Y-61147D03*
X51000Y-64852D03*
X81250Y-56602D03*
X81250Y-52897D03*
G54D18*
X66352Y-73500D03*
X62647Y-73500D03*
G54D14*
X50000Y-56397D03*
X50000Y-60102D03*
X51000Y-56397D03*
X51000Y-60102D03*
X52000Y-56397D03*
X52000Y-60102D03*
X53000Y-56397D03*
X53000Y-60102D03*
X50000Y-61147D03*
X50000Y-64852D03*
G54D18*
X70397Y-63750D03*
X74102Y-63750D03*
X74102Y-61750D03*
X70397Y-61750D03*
X66397Y-57750D03*
X70102Y-57750D03*
X66397Y-58750D03*
X70102Y-58750D03*
X62147Y-45500D03*
X65852Y-45500D03*
X70397Y-62750D03*
X74102Y-62750D03*
G54D14*
X60000Y-50852D03*
X60000Y-47147D03*
X61000Y-50852D03*
X61000Y-47147D03*
G54D18*
X62147Y-46500D03*
X65852Y-46500D03*
X62647Y-62500D03*
X66352Y-62500D03*
X62647Y-63500D03*
X66352Y-63500D03*
G54D14*
X82250Y-56602D03*
X82250Y-52897D03*
X87750Y-50147D03*
X87750Y-53852D03*
G54D18*
X87102Y-56000D03*
X83397Y-56000D03*
X62647Y-64500D03*
X66352Y-64500D03*
X70397Y-64750D03*
X74102Y-64750D03*
G54D19*
X51000Y-47370D03*
G54D20*
X51000Y-45500D03*
X51000Y-43629D03*
G54D19*
X72750Y-70120D03*
G54D20*
X72750Y-68250D03*
X72750Y-66379D03*
G54D21*
X51000Y-76750D03*
X51000Y-41000D03*
X86750Y-41000D03*
X86750Y-76750D03*
X75791Y-67000D03*
X87208Y-67000D03*
G54D18*
X87749Y-69362D03*
G54D22*
X76972Y-74086D03*
G54D18*
X87749Y-70543D03*
G54D22*
X86027Y-74086D03*
G54D23*
X71250Y-59750D03*
G54D24*
X72250Y-59750D03*
X73250Y-59750D03*
X74250Y-59750D03*
X74250Y-56750D03*
X73250Y-56750D03*
X71250Y-56750D03*
X72250Y-56750D03*
G54D25*
X87750Y-71750D03*
X87750Y-73750D03*
X83500Y-64500D03*
X85500Y-64500D03*
X65500Y-60200D03*
X63500Y-60200D03*
X70207Y-56757D03*
X68792Y-55342D03*
G54D26*
X60500Y-44500D03*
G54D27*
X60500Y-42150D03*
X58650Y-43300D03*
G54D26*
X55250Y-44500D03*
G54D27*
X55250Y-42150D03*
X53400Y-43300D03*
G54D14*
X82500Y-74647D03*
X83500Y-74647D03*
G54D28*
X81500Y-74647D03*
G54D14*
X85250Y-51852D03*
X84250Y-51852D03*
G54D28*
X86250Y-51852D03*
G54D29*
X65000Y-76250D03*
X72500Y-76250D03*
G54D27*
X69000Y-42500D03*
X69000Y-52500D03*
G54D12*
X57500Y-58577D03*
X57500Y-55922D03*
G54D30*
X50500Y-66250D03*
X50500Y-68250D03*
X60500Y-52500D03*
X60500Y-54500D03*
X76750Y-40000D03*
X76750Y-42000D03*
X75500Y-46500D03*
X75500Y-48500D03*
G54D31*
X50250Y-49000D03*
X50250Y-55000D03*
X70750Y-45000D03*
X76750Y-45000D03*
X70750Y-50000D03*
X76750Y-50000D03*
X62750Y-51250D03*
X62750Y-57250D03*
G54D18*
X68602Y-71500D03*
X69397Y-72000D03*
X68602Y-72500D03*
X68602Y-68750D03*
X69397Y-69250D03*
X68602Y-69750D03*
G54D14*
X68250Y-77602D03*
X68250Y-73897D03*
X69250Y-77602D03*
X69250Y-73897D03*
X52000Y-61147D03*
X52000Y-64852D03*
X53000Y-61147D03*
X53000Y-64852D03*
X84750Y-54647D03*
X85250Y-53852D03*
X85750Y-54647D03*
G54D32*
X63900Y-60975D03*
X63900Y-61725D03*
X65100Y-60975D03*
X63900Y-61350D03*
X65100Y-61725D03*
G54D25*
X55787Y-51840D03*
X54212Y-50659D03*
G54D31*
X56476Y-51250D03*
X53523Y-51250D03*
G54D25*
X55000Y-51938D03*
X55000Y-50561D03*
X78250Y-46992D03*
X77561Y-46500D03*
X78938Y-46500D03*
X78250Y-46007D03*
X79500Y-41492D03*
X78811Y-41000D03*
X80188Y-41000D03*
X79500Y-40507D03*
G54D28*
X78250Y-51147D03*
G54D14*
X78250Y-49852D03*
G54D33*
X78750Y-76750D03*
G54D34*
X78750Y-75750D03*
G54D33*
X76250Y-76750D03*
G54D34*
X76250Y-75750D03*
G54D25*
X56462Y-62659D03*
X58037Y-63840D03*
G54D31*
X55773Y-63250D03*
X58726Y-63250D03*
G54D25*
X57250Y-62561D03*
X57250Y-63938D03*
G54D18*
X66352Y-72500D03*
X62647Y-72500D03*
X76147Y-52500D03*
X79852Y-52500D03*
G54D25*
X75500Y-56750D03*
X75500Y-54750D03*
X72250Y-60750D03*
X70250Y-60750D03*
X87250Y-57000D03*
X85250Y-57000D03*
G54D21*
X76000Y-61000D03*
X87000Y-61000D03*
G54D13*
X80500Y-64672D03*
G54D12*
X81500Y-64672D03*
X82500Y-64672D03*
G54D35*
X79500Y-61750D03*
X78250Y-59250D03*
M02*
