G04 (created by PCBNEW (2013-07-07 BZR 4022)-stable) date 7/6/2014 5:52:28 PM*
%MOIN*%
G04 Gerber Fmt 3.4, Leading zero omitted, Abs format*
%FSLAX34Y34*%
G01*
G70*
G90*
G04 APERTURE LIST*
%ADD10C,0.00590551*%
%ADD11C,0.006*%
%ADD12C,0.012*%
%ADD13C,0.0001*%
G04 APERTURE END LIST*
G54D10*
G54D11*
X77049Y-70235D02*
X77064Y-70221D01*
X77092Y-70178D01*
X77107Y-70150D01*
X77121Y-70107D01*
X77135Y-70035D01*
X77135Y-69978D01*
X77121Y-69907D01*
X77107Y-69864D01*
X77092Y-69835D01*
X77064Y-69792D01*
X77049Y-69778D01*
X76964Y-69921D02*
X76892Y-70121D01*
X76821Y-69921D01*
X76550Y-70121D02*
X76721Y-70121D01*
X76635Y-70121D02*
X76635Y-69821D01*
X76664Y-69864D01*
X76692Y-69892D01*
X76721Y-69907D01*
X76450Y-70235D02*
X76435Y-70221D01*
X76407Y-70178D01*
X76392Y-70150D01*
X76378Y-70107D01*
X76364Y-70035D01*
X76364Y-69978D01*
X76378Y-69907D01*
X76392Y-69864D01*
X76407Y-69835D01*
X76435Y-69792D01*
X76450Y-69778D01*
X86457Y-70921D02*
X86457Y-71164D01*
X86471Y-71192D01*
X86485Y-71207D01*
X86514Y-71221D01*
X86557Y-71221D01*
X86585Y-71207D01*
X86457Y-71107D02*
X86485Y-71121D01*
X86542Y-71121D01*
X86571Y-71107D01*
X86585Y-71092D01*
X86600Y-71064D01*
X86600Y-70978D01*
X86585Y-70950D01*
X86571Y-70935D01*
X86542Y-70921D01*
X86485Y-70921D01*
X86457Y-70935D01*
X86314Y-71121D02*
X86314Y-70921D01*
X86314Y-70821D02*
X86328Y-70835D01*
X86314Y-70850D01*
X86300Y-70835D01*
X86314Y-70821D01*
X86314Y-70850D01*
X86214Y-70921D02*
X86100Y-70921D01*
X86171Y-70821D02*
X86171Y-71078D01*
X86157Y-71107D01*
X86128Y-71121D01*
X86100Y-71121D01*
X86000Y-71121D02*
X86000Y-70821D01*
X85871Y-71121D02*
X85871Y-70964D01*
X85885Y-70935D01*
X85914Y-70921D01*
X85957Y-70921D01*
X85985Y-70935D01*
X86000Y-70950D01*
X85600Y-70921D02*
X85600Y-71121D01*
X85728Y-70921D02*
X85728Y-71078D01*
X85714Y-71107D01*
X85685Y-71121D01*
X85642Y-71121D01*
X85614Y-71107D01*
X85600Y-71092D01*
X85457Y-71121D02*
X85457Y-70821D01*
X85457Y-70935D02*
X85428Y-70921D01*
X85371Y-70921D01*
X85342Y-70935D01*
X85328Y-70950D01*
X85314Y-70978D01*
X85314Y-71064D01*
X85328Y-71092D01*
X85342Y-71107D01*
X85371Y-71121D01*
X85428Y-71121D01*
X85457Y-71107D01*
X85185Y-71092D02*
X85171Y-71107D01*
X85185Y-71121D01*
X85200Y-71107D01*
X85185Y-71092D01*
X85185Y-71121D01*
X84914Y-71107D02*
X84942Y-71121D01*
X85000Y-71121D01*
X85028Y-71107D01*
X85042Y-71092D01*
X85057Y-71064D01*
X85057Y-70978D01*
X85042Y-70950D01*
X85028Y-70935D01*
X85000Y-70921D01*
X84942Y-70921D01*
X84914Y-70935D01*
X84742Y-71121D02*
X84771Y-71107D01*
X84785Y-71092D01*
X84800Y-71064D01*
X84800Y-70978D01*
X84785Y-70950D01*
X84771Y-70935D01*
X84742Y-70921D01*
X84700Y-70921D01*
X84671Y-70935D01*
X84657Y-70950D01*
X84642Y-70978D01*
X84642Y-71064D01*
X84657Y-71092D01*
X84671Y-71107D01*
X84700Y-71121D01*
X84742Y-71121D01*
X84514Y-71121D02*
X84514Y-70921D01*
X84514Y-70950D02*
X84500Y-70935D01*
X84471Y-70921D01*
X84428Y-70921D01*
X84400Y-70935D01*
X84385Y-70964D01*
X84385Y-71121D01*
X84385Y-70964D02*
X84371Y-70935D01*
X84342Y-70921D01*
X84300Y-70921D01*
X84271Y-70935D01*
X84257Y-70964D01*
X84257Y-71121D01*
X83900Y-70807D02*
X84157Y-71192D01*
X83800Y-70921D02*
X83800Y-71221D01*
X83800Y-70935D02*
X83771Y-70921D01*
X83714Y-70921D01*
X83685Y-70935D01*
X83671Y-70950D01*
X83657Y-70978D01*
X83657Y-71064D01*
X83671Y-71092D01*
X83685Y-71107D01*
X83714Y-71121D01*
X83771Y-71121D01*
X83800Y-71107D01*
X83414Y-71107D02*
X83442Y-71121D01*
X83500Y-71121D01*
X83528Y-71107D01*
X83542Y-71078D01*
X83542Y-70964D01*
X83528Y-70935D01*
X83500Y-70921D01*
X83442Y-70921D01*
X83414Y-70935D01*
X83400Y-70964D01*
X83400Y-70992D01*
X83542Y-71021D01*
X83271Y-70921D02*
X83271Y-71221D01*
X83271Y-70935D02*
X83242Y-70921D01*
X83185Y-70921D01*
X83157Y-70935D01*
X83142Y-70950D01*
X83128Y-70978D01*
X83128Y-71064D01*
X83142Y-71092D01*
X83157Y-71107D01*
X83185Y-71121D01*
X83242Y-71121D01*
X83271Y-71107D01*
X82871Y-71121D02*
X82871Y-70964D01*
X82885Y-70935D01*
X82914Y-70921D01*
X82971Y-70921D01*
X83000Y-70935D01*
X82871Y-71107D02*
X82900Y-71121D01*
X82971Y-71121D01*
X83000Y-71107D01*
X83014Y-71078D01*
X83014Y-71050D01*
X83000Y-71021D01*
X82971Y-71007D01*
X82900Y-71007D01*
X82871Y-70992D01*
X82742Y-71107D02*
X82714Y-71121D01*
X82657Y-71121D01*
X82628Y-71107D01*
X82614Y-71078D01*
X82614Y-71064D01*
X82628Y-71035D01*
X82657Y-71021D01*
X82700Y-71021D01*
X82728Y-71007D01*
X82742Y-70978D01*
X82742Y-70964D01*
X82728Y-70935D01*
X82700Y-70921D01*
X82657Y-70921D01*
X82628Y-70935D01*
X82442Y-71121D02*
X82471Y-71107D01*
X82485Y-71078D01*
X82485Y-70821D01*
X82200Y-71121D02*
X82200Y-70964D01*
X82214Y-70935D01*
X82242Y-70921D01*
X82300Y-70921D01*
X82328Y-70935D01*
X82200Y-71107D02*
X82228Y-71121D01*
X82300Y-71121D01*
X82328Y-71107D01*
X82342Y-71078D01*
X82342Y-71050D01*
X82328Y-71021D01*
X82300Y-71007D01*
X82228Y-71007D01*
X82200Y-70992D01*
X82057Y-71121D02*
X82057Y-70821D01*
X82057Y-70935D02*
X82028Y-70921D01*
X81971Y-70921D01*
X81942Y-70935D01*
X81928Y-70950D01*
X81914Y-70978D01*
X81914Y-71064D01*
X81928Y-71092D01*
X81942Y-71107D01*
X81971Y-71121D01*
X82028Y-71121D01*
X82057Y-71107D01*
X81799Y-71107D02*
X81771Y-71121D01*
X81714Y-71121D01*
X81685Y-71107D01*
X81671Y-71078D01*
X81671Y-71064D01*
X81685Y-71035D01*
X81714Y-71021D01*
X81757Y-71021D01*
X81785Y-71007D01*
X81799Y-70978D01*
X81799Y-70964D01*
X81785Y-70935D01*
X81757Y-70921D01*
X81714Y-70921D01*
X81685Y-70935D01*
X81328Y-70807D02*
X81585Y-71192D01*
X81171Y-70821D02*
X81114Y-70821D01*
X81085Y-70835D01*
X81057Y-70864D01*
X81042Y-70921D01*
X81042Y-71021D01*
X81057Y-71078D01*
X81085Y-71107D01*
X81114Y-71121D01*
X81171Y-71121D01*
X81199Y-71107D01*
X81228Y-71078D01*
X81242Y-71021D01*
X81242Y-70921D01*
X81228Y-70864D01*
X81199Y-70835D01*
X81171Y-70821D01*
X80914Y-70921D02*
X80914Y-71221D01*
X80914Y-70935D02*
X80885Y-70921D01*
X80828Y-70921D01*
X80799Y-70935D01*
X80785Y-70950D01*
X80771Y-70978D01*
X80771Y-71064D01*
X80785Y-71092D01*
X80799Y-71107D01*
X80828Y-71121D01*
X80885Y-71121D01*
X80914Y-71107D01*
X80657Y-71035D02*
X80514Y-71035D01*
X80685Y-71121D02*
X80585Y-70821D01*
X80485Y-71121D01*
X80385Y-71121D02*
X80385Y-70921D01*
X80385Y-70950D02*
X80371Y-70935D01*
X80342Y-70921D01*
X80299Y-70921D01*
X80271Y-70935D01*
X80257Y-70964D01*
X80257Y-71121D01*
X80257Y-70964D02*
X80242Y-70935D01*
X80214Y-70921D01*
X80171Y-70921D01*
X80142Y-70935D01*
X80128Y-70964D01*
X80128Y-71121D01*
X79985Y-70921D02*
X79985Y-71221D01*
X79985Y-70935D02*
X79957Y-70921D01*
X79899Y-70921D01*
X79871Y-70935D01*
X79857Y-70950D01*
X79842Y-70978D01*
X79842Y-71064D01*
X79857Y-71092D01*
X79871Y-71107D01*
X79899Y-71121D01*
X79957Y-71121D01*
X79985Y-71107D01*
X79714Y-71121D02*
X79714Y-70821D01*
X79599Y-70821D01*
X79571Y-70835D01*
X79557Y-70850D01*
X79542Y-70878D01*
X79542Y-70921D01*
X79557Y-70950D01*
X79571Y-70964D01*
X79599Y-70978D01*
X79714Y-70978D01*
X79285Y-71121D02*
X79285Y-70964D01*
X79299Y-70935D01*
X79328Y-70921D01*
X79385Y-70921D01*
X79414Y-70935D01*
X79285Y-71107D02*
X79314Y-71121D01*
X79385Y-71121D01*
X79414Y-71107D01*
X79428Y-71078D01*
X79428Y-71050D01*
X79414Y-71021D01*
X79385Y-71007D01*
X79314Y-71007D01*
X79285Y-70992D01*
X79157Y-71107D02*
X79128Y-71121D01*
X79071Y-71121D01*
X79042Y-71107D01*
X79028Y-71078D01*
X79028Y-71064D01*
X79042Y-71035D01*
X79071Y-71021D01*
X79114Y-71021D01*
X79142Y-71007D01*
X79157Y-70978D01*
X79157Y-70964D01*
X79142Y-70935D01*
X79114Y-70921D01*
X79071Y-70921D01*
X79042Y-70935D01*
X78914Y-71107D02*
X78885Y-71121D01*
X78828Y-71121D01*
X78799Y-71107D01*
X78785Y-71078D01*
X78785Y-71064D01*
X78799Y-71035D01*
X78828Y-71021D01*
X78871Y-71021D01*
X78899Y-71007D01*
X78914Y-70978D01*
X78914Y-70964D01*
X78899Y-70935D01*
X78871Y-70921D01*
X78828Y-70921D01*
X78799Y-70935D01*
X78685Y-70821D02*
X78485Y-71121D01*
X78485Y-70821D02*
X78685Y-71121D01*
X78385Y-71107D02*
X78357Y-71121D01*
X78299Y-71121D01*
X78271Y-71107D01*
X78257Y-71078D01*
X78257Y-71064D01*
X78271Y-71035D01*
X78299Y-71021D01*
X78342Y-71021D01*
X78371Y-71007D01*
X78385Y-70978D01*
X78385Y-70964D01*
X78371Y-70935D01*
X78342Y-70921D01*
X78299Y-70921D01*
X78271Y-70935D01*
X78128Y-71121D02*
X78128Y-70921D01*
X78128Y-70821D02*
X78142Y-70835D01*
X78128Y-70850D01*
X78114Y-70835D01*
X78128Y-70821D01*
X78128Y-70850D01*
X77999Y-71107D02*
X77971Y-71121D01*
X77914Y-71121D01*
X77885Y-71107D01*
X77871Y-71078D01*
X77871Y-71064D01*
X77885Y-71035D01*
X77914Y-71021D01*
X77957Y-71021D01*
X77985Y-71007D01*
X77999Y-70978D01*
X77999Y-70964D01*
X77985Y-70935D01*
X77957Y-70921D01*
X77914Y-70921D01*
X77885Y-70935D01*
X77785Y-70921D02*
X77671Y-70921D01*
X77742Y-70821D02*
X77742Y-71078D01*
X77728Y-71107D01*
X77699Y-71121D01*
X77671Y-71121D01*
X77528Y-71121D02*
X77557Y-71107D01*
X77571Y-71092D01*
X77585Y-71064D01*
X77585Y-70978D01*
X77571Y-70950D01*
X77557Y-70935D01*
X77528Y-70921D01*
X77485Y-70921D01*
X77457Y-70935D01*
X77442Y-70950D01*
X77428Y-70978D01*
X77428Y-71064D01*
X77442Y-71092D01*
X77457Y-71107D01*
X77485Y-71121D01*
X77528Y-71121D01*
X77299Y-71121D02*
X77299Y-70921D01*
X77299Y-70978D02*
X77285Y-70950D01*
X77271Y-70935D01*
X77242Y-70921D01*
X77214Y-70921D01*
X77014Y-70964D02*
X76971Y-70978D01*
X76957Y-70992D01*
X76942Y-71021D01*
X76942Y-71064D01*
X76957Y-71092D01*
X76971Y-71107D01*
X76999Y-71121D01*
X77114Y-71121D01*
X77114Y-70821D01*
X77014Y-70821D01*
X76985Y-70835D01*
X76971Y-70850D01*
X76957Y-70878D01*
X76957Y-70907D01*
X76971Y-70935D01*
X76985Y-70950D01*
X77014Y-70964D01*
X77114Y-70964D01*
X76699Y-71107D02*
X76728Y-71121D01*
X76785Y-71121D01*
X76814Y-71107D01*
X76828Y-71078D01*
X76828Y-70964D01*
X76814Y-70935D01*
X76785Y-70921D01*
X76728Y-70921D01*
X76699Y-70935D01*
X76685Y-70964D01*
X76685Y-70992D01*
X76828Y-71021D01*
X76557Y-70921D02*
X76557Y-71121D01*
X76557Y-70950D02*
X76542Y-70935D01*
X76514Y-70921D01*
X76471Y-70921D01*
X76442Y-70935D01*
X76428Y-70964D01*
X76428Y-71121D01*
X76157Y-71107D02*
X76185Y-71121D01*
X76242Y-71121D01*
X76271Y-71107D01*
X76285Y-71092D01*
X76299Y-71064D01*
X76299Y-70978D01*
X76285Y-70950D01*
X76271Y-70935D01*
X76242Y-70921D01*
X76185Y-70921D01*
X76157Y-70935D01*
X76028Y-71121D02*
X76028Y-70821D01*
X75899Y-71121D02*
X75899Y-70964D01*
X75914Y-70935D01*
X75942Y-70921D01*
X75985Y-70921D01*
X76014Y-70935D01*
X76028Y-70950D01*
X75771Y-71107D02*
X75728Y-71121D01*
X75657Y-71121D01*
X75628Y-71107D01*
X75614Y-71092D01*
X75599Y-71064D01*
X75599Y-71035D01*
X75614Y-71007D01*
X75628Y-70992D01*
X75657Y-70978D01*
X75714Y-70964D01*
X75742Y-70950D01*
X75757Y-70935D01*
X75771Y-70907D01*
X75771Y-70878D01*
X75757Y-70850D01*
X75742Y-70835D01*
X75714Y-70821D01*
X75642Y-70821D01*
X75599Y-70835D01*
X75342Y-70921D02*
X75342Y-71121D01*
X75471Y-70921D02*
X75471Y-71078D01*
X75457Y-71107D01*
X75428Y-71121D01*
X75385Y-71121D01*
X75357Y-71107D01*
X75342Y-71092D01*
X75199Y-70921D02*
X75199Y-71221D01*
X75199Y-70935D02*
X75171Y-70921D01*
X75114Y-70921D01*
X75085Y-70935D01*
X75071Y-70950D01*
X75057Y-70978D01*
X75057Y-71064D01*
X75071Y-71092D01*
X75085Y-71107D01*
X75114Y-71121D01*
X75171Y-71121D01*
X75199Y-71107D01*
X74928Y-70921D02*
X74928Y-71221D01*
X74928Y-70935D02*
X74899Y-70921D01*
X74842Y-70921D01*
X74814Y-70935D01*
X74799Y-70950D01*
X74785Y-70978D01*
X74785Y-71064D01*
X74799Y-71092D01*
X74814Y-71107D01*
X74842Y-71121D01*
X74899Y-71121D01*
X74928Y-71107D01*
X74614Y-71121D02*
X74642Y-71107D01*
X74657Y-71078D01*
X74657Y-70821D01*
X74528Y-70921D02*
X74457Y-71121D01*
X74385Y-70921D02*
X74457Y-71121D01*
X74485Y-71192D01*
X74499Y-71207D01*
X74528Y-71221D01*
G54D12*
X86399Y-68392D02*
X86285Y-68392D01*
X86228Y-68421D01*
X86171Y-68478D01*
X86142Y-68592D01*
X86142Y-68792D01*
X86171Y-68907D01*
X86228Y-68964D01*
X86285Y-68992D01*
X86399Y-68992D01*
X86457Y-68964D01*
X86514Y-68907D01*
X86542Y-68792D01*
X86542Y-68592D01*
X86514Y-68478D01*
X86457Y-68421D01*
X86399Y-68392D01*
X85885Y-68592D02*
X85885Y-69192D01*
X85885Y-68621D02*
X85828Y-68592D01*
X85714Y-68592D01*
X85657Y-68621D01*
X85628Y-68650D01*
X85600Y-68707D01*
X85600Y-68878D01*
X85628Y-68935D01*
X85657Y-68964D01*
X85714Y-68992D01*
X85828Y-68992D01*
X85885Y-68964D01*
X84914Y-68821D02*
X84628Y-68821D01*
X84971Y-68992D02*
X84771Y-68392D01*
X84571Y-68992D01*
X84371Y-68992D02*
X84371Y-68592D01*
X84371Y-68650D02*
X84342Y-68621D01*
X84285Y-68592D01*
X84199Y-68592D01*
X84142Y-68621D01*
X84114Y-68678D01*
X84114Y-68992D01*
X84114Y-68678D02*
X84085Y-68621D01*
X84028Y-68592D01*
X83942Y-68592D01*
X83885Y-68621D01*
X83857Y-68678D01*
X83857Y-68992D01*
X83571Y-68592D02*
X83571Y-69192D01*
X83571Y-68621D02*
X83514Y-68592D01*
X83399Y-68592D01*
X83342Y-68621D01*
X83314Y-68650D01*
X83285Y-68707D01*
X83285Y-68878D01*
X83314Y-68935D01*
X83342Y-68964D01*
X83399Y-68992D01*
X83514Y-68992D01*
X83571Y-68964D01*
X82142Y-68364D02*
X82657Y-69135D01*
X81485Y-68992D02*
X81485Y-68392D01*
X81257Y-68392D01*
X81200Y-68421D01*
X81171Y-68450D01*
X81142Y-68507D01*
X81142Y-68592D01*
X81171Y-68650D01*
X81200Y-68678D01*
X81257Y-68707D01*
X81485Y-68707D01*
X80628Y-68992D02*
X80628Y-68678D01*
X80657Y-68621D01*
X80714Y-68592D01*
X80828Y-68592D01*
X80885Y-68621D01*
X80628Y-68964D02*
X80685Y-68992D01*
X80828Y-68992D01*
X80885Y-68964D01*
X80914Y-68907D01*
X80914Y-68850D01*
X80885Y-68792D01*
X80828Y-68764D01*
X80685Y-68764D01*
X80628Y-68735D01*
X80371Y-68964D02*
X80314Y-68992D01*
X80200Y-68992D01*
X80142Y-68964D01*
X80114Y-68907D01*
X80114Y-68878D01*
X80142Y-68821D01*
X80200Y-68792D01*
X80285Y-68792D01*
X80342Y-68764D01*
X80371Y-68707D01*
X80371Y-68678D01*
X80342Y-68621D01*
X80285Y-68592D01*
X80200Y-68592D01*
X80142Y-68621D01*
X79885Y-68964D02*
X79828Y-68992D01*
X79714Y-68992D01*
X79657Y-68964D01*
X79628Y-68907D01*
X79628Y-68878D01*
X79657Y-68821D01*
X79714Y-68792D01*
X79800Y-68792D01*
X79857Y-68764D01*
X79885Y-68707D01*
X79885Y-68678D01*
X79857Y-68621D01*
X79800Y-68592D01*
X79714Y-68592D01*
X79657Y-68621D01*
X79371Y-68764D02*
X78914Y-68764D01*
X78714Y-68392D02*
X78371Y-68392D01*
X78542Y-68992D02*
X78542Y-68392D01*
X78171Y-68992D02*
X78171Y-68592D01*
X78171Y-68707D02*
X78142Y-68650D01*
X78114Y-68621D01*
X78057Y-68592D01*
X78000Y-68592D01*
X77542Y-68992D02*
X77542Y-68678D01*
X77571Y-68621D01*
X77628Y-68592D01*
X77742Y-68592D01*
X77800Y-68621D01*
X77542Y-68964D02*
X77600Y-68992D01*
X77742Y-68992D01*
X77800Y-68964D01*
X77828Y-68907D01*
X77828Y-68850D01*
X77800Y-68792D01*
X77742Y-68764D01*
X77600Y-68764D01*
X77542Y-68735D01*
X77257Y-68592D02*
X77257Y-68992D01*
X77257Y-68650D02*
X77228Y-68621D01*
X77171Y-68592D01*
X77085Y-68592D01*
X77028Y-68621D01*
X77000Y-68678D01*
X77000Y-68992D01*
X76742Y-68964D02*
X76685Y-68992D01*
X76571Y-68992D01*
X76514Y-68964D01*
X76485Y-68907D01*
X76485Y-68878D01*
X76514Y-68821D01*
X76571Y-68792D01*
X76657Y-68792D01*
X76714Y-68764D01*
X76742Y-68707D01*
X76742Y-68678D01*
X76714Y-68621D01*
X76657Y-68592D01*
X76571Y-68592D01*
X76514Y-68621D01*
X76228Y-68992D02*
X76228Y-68592D01*
X76228Y-68392D02*
X76257Y-68421D01*
X76228Y-68450D01*
X76200Y-68421D01*
X76228Y-68392D01*
X76228Y-68450D01*
X75971Y-68964D02*
X75914Y-68992D01*
X75800Y-68992D01*
X75742Y-68964D01*
X75714Y-68907D01*
X75714Y-68878D01*
X75742Y-68821D01*
X75800Y-68792D01*
X75885Y-68792D01*
X75942Y-68764D01*
X75971Y-68707D01*
X75971Y-68678D01*
X75942Y-68621D01*
X75885Y-68592D01*
X75800Y-68592D01*
X75742Y-68621D01*
X75542Y-68592D02*
X75314Y-68592D01*
X75457Y-68392D02*
X75457Y-68907D01*
X75428Y-68964D01*
X75371Y-68992D01*
X75314Y-68992D01*
X75028Y-68992D02*
X75085Y-68964D01*
X75114Y-68935D01*
X75142Y-68878D01*
X75142Y-68707D01*
X75114Y-68650D01*
X75085Y-68621D01*
X75028Y-68592D01*
X74942Y-68592D01*
X74885Y-68621D01*
X74857Y-68650D01*
X74828Y-68707D01*
X74828Y-68878D01*
X74857Y-68935D01*
X74885Y-68964D01*
X74942Y-68992D01*
X75028Y-68992D01*
X74571Y-68992D02*
X74571Y-68592D01*
X74571Y-68707D02*
X74542Y-68650D01*
X74514Y-68621D01*
X74457Y-68592D01*
X74400Y-68592D01*
X83228Y-69638D02*
X83142Y-69667D01*
X83114Y-69695D01*
X83085Y-69752D01*
X83085Y-69838D01*
X83114Y-69895D01*
X83142Y-69924D01*
X83200Y-69952D01*
X83428Y-69952D01*
X83428Y-69352D01*
X83228Y-69352D01*
X83171Y-69381D01*
X83142Y-69410D01*
X83114Y-69467D01*
X83114Y-69524D01*
X83142Y-69581D01*
X83171Y-69610D01*
X83228Y-69638D01*
X83428Y-69638D01*
X82600Y-69924D02*
X82657Y-69952D01*
X82771Y-69952D01*
X82828Y-69924D01*
X82857Y-69867D01*
X82857Y-69638D01*
X82828Y-69581D01*
X82771Y-69552D01*
X82657Y-69552D01*
X82600Y-69581D01*
X82571Y-69638D01*
X82571Y-69695D01*
X82857Y-69752D01*
X82314Y-69552D02*
X82314Y-69952D01*
X82314Y-69610D02*
X82285Y-69581D01*
X82228Y-69552D01*
X82142Y-69552D01*
X82085Y-69581D01*
X82057Y-69638D01*
X82057Y-69952D01*
X81514Y-69924D02*
X81571Y-69952D01*
X81685Y-69952D01*
X81742Y-69924D01*
X81771Y-69895D01*
X81800Y-69838D01*
X81800Y-69667D01*
X81771Y-69610D01*
X81742Y-69581D01*
X81685Y-69552D01*
X81571Y-69552D01*
X81514Y-69581D01*
X81257Y-69952D02*
X81257Y-69352D01*
X81000Y-69952D02*
X81000Y-69638D01*
X81028Y-69581D01*
X81085Y-69552D01*
X81171Y-69552D01*
X81228Y-69581D01*
X81257Y-69610D01*
X80285Y-69924D02*
X80200Y-69952D01*
X80057Y-69952D01*
X80000Y-69924D01*
X79971Y-69895D01*
X79942Y-69838D01*
X79942Y-69781D01*
X79971Y-69724D01*
X80000Y-69695D01*
X80057Y-69667D01*
X80171Y-69638D01*
X80228Y-69610D01*
X80257Y-69581D01*
X80285Y-69524D01*
X80285Y-69467D01*
X80257Y-69410D01*
X80228Y-69381D01*
X80171Y-69352D01*
X80028Y-69352D01*
X79942Y-69381D01*
X79428Y-69552D02*
X79428Y-69952D01*
X79685Y-69552D02*
X79685Y-69867D01*
X79657Y-69924D01*
X79600Y-69952D01*
X79514Y-69952D01*
X79457Y-69924D01*
X79428Y-69895D01*
X79142Y-69552D02*
X79142Y-70152D01*
X79142Y-69581D02*
X79085Y-69552D01*
X78971Y-69552D01*
X78914Y-69581D01*
X78885Y-69610D01*
X78857Y-69667D01*
X78857Y-69838D01*
X78885Y-69895D01*
X78914Y-69924D01*
X78971Y-69952D01*
X79085Y-69952D01*
X79142Y-69924D01*
X78600Y-69552D02*
X78600Y-70152D01*
X78600Y-69581D02*
X78542Y-69552D01*
X78428Y-69552D01*
X78371Y-69581D01*
X78342Y-69610D01*
X78314Y-69667D01*
X78314Y-69838D01*
X78342Y-69895D01*
X78371Y-69924D01*
X78428Y-69952D01*
X78542Y-69952D01*
X78600Y-69924D01*
X77971Y-69952D02*
X78028Y-69924D01*
X78057Y-69867D01*
X78057Y-69352D01*
X77800Y-69552D02*
X77657Y-69952D01*
X77514Y-69552D02*
X77657Y-69952D01*
X77714Y-70095D01*
X77742Y-70124D01*
X77800Y-70152D01*
G54D13*
G36*
X80977Y-72957D02*
X80969Y-72953D01*
X80950Y-72941D01*
X80924Y-72924D01*
X80893Y-72903D01*
X80862Y-72882D01*
X80836Y-72865D01*
X80818Y-72853D01*
X80811Y-72849D01*
X80807Y-72850D01*
X80792Y-72858D01*
X80770Y-72869D01*
X80758Y-72875D01*
X80738Y-72884D01*
X80728Y-72886D01*
X80727Y-72883D01*
X80719Y-72868D01*
X80708Y-72842D01*
X80693Y-72808D01*
X80676Y-72768D01*
X80658Y-72725D01*
X80640Y-72681D01*
X80622Y-72639D01*
X80607Y-72601D01*
X80594Y-72571D01*
X80586Y-72549D01*
X80583Y-72540D01*
X80584Y-72538D01*
X80594Y-72529D01*
X80611Y-72516D01*
X80649Y-72485D01*
X80685Y-72439D01*
X80708Y-72387D01*
X80715Y-72329D01*
X80709Y-72276D01*
X80688Y-72225D01*
X80652Y-72178D01*
X80608Y-72144D01*
X80557Y-72122D01*
X80500Y-72115D01*
X80445Y-72121D01*
X80393Y-72142D01*
X80346Y-72177D01*
X80327Y-72200D01*
X80300Y-72247D01*
X80284Y-72297D01*
X80283Y-72309D01*
X80285Y-72365D01*
X80301Y-72418D01*
X80330Y-72465D01*
X80371Y-72504D01*
X80376Y-72508D01*
X80395Y-72522D01*
X80407Y-72531D01*
X80417Y-72539D01*
X80347Y-72709D01*
X80336Y-72736D01*
X80316Y-72782D01*
X80299Y-72822D01*
X80286Y-72854D01*
X80276Y-72875D01*
X80272Y-72884D01*
X80272Y-72884D01*
X80266Y-72885D01*
X80253Y-72880D01*
X80229Y-72869D01*
X80213Y-72861D01*
X80195Y-72852D01*
X80187Y-72849D01*
X80180Y-72853D01*
X80163Y-72864D01*
X80138Y-72881D01*
X80108Y-72901D01*
X80079Y-72921D01*
X80052Y-72939D01*
X80033Y-72951D01*
X80023Y-72956D01*
X80022Y-72956D01*
X80014Y-72951D01*
X79998Y-72939D01*
X79975Y-72917D01*
X79943Y-72885D01*
X79938Y-72880D01*
X79911Y-72852D01*
X79889Y-72829D01*
X79874Y-72813D01*
X79869Y-72806D01*
X79869Y-72806D01*
X79874Y-72796D01*
X79886Y-72777D01*
X79904Y-72750D01*
X79925Y-72719D01*
X79981Y-72637D01*
X79950Y-72560D01*
X79941Y-72537D01*
X79929Y-72508D01*
X79920Y-72488D01*
X79915Y-72479D01*
X79907Y-72476D01*
X79886Y-72471D01*
X79855Y-72464D01*
X79819Y-72458D01*
X79784Y-72451D01*
X79753Y-72445D01*
X79730Y-72441D01*
X79720Y-72439D01*
X79718Y-72437D01*
X79716Y-72432D01*
X79714Y-72422D01*
X79714Y-72403D01*
X79713Y-72373D01*
X79713Y-72329D01*
X79713Y-72325D01*
X79714Y-72283D01*
X79714Y-72250D01*
X79715Y-72229D01*
X79717Y-72221D01*
X79717Y-72221D01*
X79727Y-72218D01*
X79749Y-72214D01*
X79780Y-72207D01*
X79818Y-72200D01*
X79820Y-72200D01*
X79857Y-72193D01*
X79888Y-72186D01*
X79910Y-72181D01*
X79919Y-72178D01*
X79921Y-72176D01*
X79929Y-72161D01*
X79940Y-72138D01*
X79952Y-72110D01*
X79964Y-72081D01*
X79975Y-72054D01*
X79982Y-72035D01*
X79984Y-72026D01*
X79984Y-72026D01*
X79978Y-72017D01*
X79965Y-71997D01*
X79947Y-71971D01*
X79925Y-71939D01*
X79924Y-71936D01*
X79902Y-71905D01*
X79885Y-71878D01*
X79873Y-71859D01*
X79869Y-71851D01*
X79869Y-71850D01*
X79876Y-71841D01*
X79892Y-71823D01*
X79915Y-71799D01*
X79943Y-71771D01*
X79952Y-71763D01*
X79982Y-71733D01*
X80003Y-71713D01*
X80017Y-71703D01*
X80023Y-71700D01*
X80023Y-71701D01*
X80033Y-71706D01*
X80053Y-71719D01*
X80080Y-71738D01*
X80112Y-71759D01*
X80114Y-71761D01*
X80145Y-71782D01*
X80171Y-71800D01*
X80190Y-71812D01*
X80198Y-71817D01*
X80200Y-71817D01*
X80212Y-71813D01*
X80235Y-71806D01*
X80262Y-71795D01*
X80291Y-71783D01*
X80318Y-71772D01*
X80338Y-71763D01*
X80347Y-71758D01*
X80347Y-71757D01*
X80351Y-71746D01*
X80356Y-71722D01*
X80363Y-71690D01*
X80370Y-71651D01*
X80371Y-71645D01*
X80378Y-71608D01*
X80384Y-71577D01*
X80389Y-71555D01*
X80391Y-71546D01*
X80396Y-71545D01*
X80415Y-71544D01*
X80443Y-71543D01*
X80477Y-71543D01*
X80512Y-71543D01*
X80546Y-71544D01*
X80576Y-71545D01*
X80597Y-71546D01*
X80606Y-71548D01*
X80607Y-71549D01*
X80610Y-71560D01*
X80615Y-71584D01*
X80622Y-71616D01*
X80629Y-71655D01*
X80630Y-71662D01*
X80637Y-71699D01*
X80644Y-71730D01*
X80648Y-71751D01*
X80651Y-71759D01*
X80654Y-71761D01*
X80669Y-71768D01*
X80694Y-71778D01*
X80726Y-71791D01*
X80798Y-71820D01*
X80886Y-71759D01*
X80894Y-71754D01*
X80926Y-71732D01*
X80952Y-71715D01*
X80970Y-71703D01*
X80978Y-71699D01*
X80978Y-71699D01*
X80987Y-71707D01*
X81005Y-71723D01*
X81029Y-71747D01*
X81056Y-71774D01*
X81077Y-71795D01*
X81101Y-71820D01*
X81117Y-71836D01*
X81125Y-71847D01*
X81128Y-71854D01*
X81127Y-71858D01*
X81122Y-71867D01*
X81109Y-71886D01*
X81091Y-71913D01*
X81069Y-71944D01*
X81051Y-71971D01*
X81032Y-72000D01*
X81020Y-72021D01*
X81015Y-72032D01*
X81016Y-72036D01*
X81023Y-72053D01*
X81033Y-72080D01*
X81046Y-72111D01*
X81077Y-72181D01*
X81123Y-72189D01*
X81151Y-72195D01*
X81190Y-72202D01*
X81227Y-72209D01*
X81285Y-72221D01*
X81287Y-72433D01*
X81278Y-72437D01*
X81269Y-72440D01*
X81248Y-72444D01*
X81217Y-72450D01*
X81181Y-72457D01*
X81150Y-72463D01*
X81119Y-72469D01*
X81097Y-72473D01*
X81087Y-72475D01*
X81084Y-72479D01*
X81076Y-72494D01*
X81065Y-72518D01*
X81053Y-72547D01*
X81041Y-72576D01*
X81030Y-72604D01*
X81022Y-72625D01*
X81019Y-72636D01*
X81023Y-72644D01*
X81035Y-72662D01*
X81052Y-72688D01*
X81073Y-72719D01*
X81095Y-72750D01*
X81112Y-72777D01*
X81125Y-72796D01*
X81130Y-72804D01*
X81127Y-72810D01*
X81115Y-72825D01*
X81092Y-72849D01*
X81057Y-72884D01*
X81051Y-72889D01*
X81024Y-72916D01*
X81000Y-72937D01*
X80984Y-72952D01*
X80977Y-72957D01*
X80977Y-72957D01*
G37*
M02*
